G04 #@! TF.GenerationSoftware,KiCad,Pcbnew,(5.1.2)-1*
G04 #@! TF.CreationDate,2019-05-03T22:44:58-04:00*
G04 #@! TF.ProjectId,Ergonomic_Ortholinear_Keyboard,4572676f-6e6f-46d6-9963-5f4f7274686f,rev?*
G04 #@! TF.SameCoordinates,Original*
G04 #@! TF.FileFunction,Legend,Bot*
G04 #@! TF.FilePolarity,Positive*
%FSLAX46Y46*%
G04 Gerber Fmt 4.6, Leading zero omitted, Abs format (unit mm)*
G04 Created by KiCad (PCBNEW (5.1.2)-1) date 2019-05-03 22:44:58*
%MOMM*%
%LPD*%
G04 APERTURE LIST*
%ADD10C,0.300000*%
%ADD11C,0.010000*%
G04 APERTURE END LIST*
D10*
X55690000Y-104258571D02*
X56190000Y-103544285D01*
X56547142Y-104258571D02*
X56547142Y-102758571D01*
X55975714Y-102758571D01*
X55832857Y-102830000D01*
X55761428Y-102901428D01*
X55690000Y-103044285D01*
X55690000Y-103258571D01*
X55761428Y-103401428D01*
X55832857Y-103472857D01*
X55975714Y-103544285D01*
X56547142Y-103544285D01*
X55047142Y-103472857D02*
X54547142Y-103472857D01*
X54332857Y-104258571D02*
X55047142Y-104258571D01*
X55047142Y-102758571D01*
X54332857Y-102758571D01*
X53904285Y-102758571D02*
X53404285Y-104258571D01*
X52904285Y-102758571D01*
X52404285Y-104115714D02*
X52332857Y-104187142D01*
X52404285Y-104258571D01*
X52475714Y-104187142D01*
X52404285Y-104115714D01*
X52404285Y-104258571D01*
X50904285Y-104258571D02*
X51761428Y-104258571D01*
X51332857Y-104258571D02*
X51332857Y-102758571D01*
X51475714Y-102972857D01*
X51618571Y-103115714D01*
X51761428Y-103187142D01*
X48047142Y-102687142D02*
X49332857Y-104615714D01*
X45904285Y-103472857D02*
X46404285Y-103472857D01*
X46404285Y-104258571D02*
X46404285Y-102758571D01*
X45690000Y-102758571D01*
X45118571Y-104258571D02*
X45118571Y-102758571D01*
X43547142Y-104258571D02*
X44047142Y-103544285D01*
X44404285Y-104258571D02*
X44404285Y-102758571D01*
X43832857Y-102758571D01*
X43690000Y-102830000D01*
X43618571Y-102901428D01*
X43547142Y-103044285D01*
X43547142Y-103258571D01*
X43618571Y-103401428D01*
X43690000Y-103472857D01*
X43832857Y-103544285D01*
X44404285Y-103544285D01*
X42975714Y-104187142D02*
X42761428Y-104258571D01*
X42404285Y-104258571D01*
X42261428Y-104187142D01*
X42190000Y-104115714D01*
X42118571Y-103972857D01*
X42118571Y-103830000D01*
X42190000Y-103687142D01*
X42261428Y-103615714D01*
X42404285Y-103544285D01*
X42690000Y-103472857D01*
X42832857Y-103401428D01*
X42904285Y-103330000D01*
X42975714Y-103187142D01*
X42975714Y-103044285D01*
X42904285Y-102901428D01*
X42832857Y-102830000D01*
X42690000Y-102758571D01*
X42332857Y-102758571D01*
X42118571Y-102830000D01*
X41690000Y-102758571D02*
X40832857Y-102758571D01*
X41261428Y-104258571D02*
X41261428Y-102758571D01*
X39190000Y-103472857D02*
X38690000Y-103472857D01*
X38475714Y-104258571D02*
X39190000Y-104258571D01*
X39190000Y-102758571D01*
X38475714Y-102758571D01*
X37832857Y-104258571D02*
X37832857Y-102758571D01*
X37475714Y-102758571D01*
X37261428Y-102830000D01*
X37118571Y-102972857D01*
X37047142Y-103115714D01*
X36975714Y-103401428D01*
X36975714Y-103615714D01*
X37047142Y-103901428D01*
X37118571Y-104044285D01*
X37261428Y-104187142D01*
X37475714Y-104258571D01*
X37832857Y-104258571D01*
X36332857Y-104258571D02*
X36332857Y-102758571D01*
X35832857Y-102758571D02*
X34975714Y-102758571D01*
X35404285Y-104258571D02*
X35404285Y-102758571D01*
X34475714Y-104258571D02*
X34475714Y-102758571D01*
X33475714Y-102758571D02*
X33190000Y-102758571D01*
X33047142Y-102830000D01*
X32904285Y-102972857D01*
X32832857Y-103258571D01*
X32832857Y-103758571D01*
X32904285Y-104044285D01*
X33047142Y-104187142D01*
X33190000Y-104258571D01*
X33475714Y-104258571D01*
X33618571Y-104187142D01*
X33761428Y-104044285D01*
X33832857Y-103758571D01*
X33832857Y-103258571D01*
X33761428Y-102972857D01*
X33618571Y-102830000D01*
X33475714Y-102758571D01*
X32190000Y-104258571D02*
X32190000Y-102758571D01*
X31332857Y-104258571D01*
X31332857Y-102758571D01*
X125177142Y-29582857D02*
X124677142Y-29582857D01*
X124462857Y-30368571D02*
X125177142Y-30368571D01*
X125177142Y-28868571D01*
X124462857Y-28868571D01*
X123819999Y-30368571D02*
X123819999Y-29368571D01*
X123819999Y-29654285D02*
X123748571Y-29511428D01*
X123677142Y-29440000D01*
X123534285Y-29368571D01*
X123391428Y-29368571D01*
X122248571Y-29368571D02*
X122248571Y-30582857D01*
X122319999Y-30725714D01*
X122391428Y-30797142D01*
X122534285Y-30868571D01*
X122748571Y-30868571D01*
X122891428Y-30797142D01*
X122248571Y-30297142D02*
X122391428Y-30368571D01*
X122677142Y-30368571D01*
X122819999Y-30297142D01*
X122891428Y-30225714D01*
X122962857Y-30082857D01*
X122962857Y-29654285D01*
X122891428Y-29511428D01*
X122819999Y-29440000D01*
X122677142Y-29368571D01*
X122391428Y-29368571D01*
X122248571Y-29440000D01*
X121319999Y-30368571D02*
X121462857Y-30297142D01*
X121534285Y-30225714D01*
X121605714Y-30082857D01*
X121605714Y-29654285D01*
X121534285Y-29511428D01*
X121462857Y-29440000D01*
X121319999Y-29368571D01*
X121105714Y-29368571D01*
X120962857Y-29440000D01*
X120891428Y-29511428D01*
X120819999Y-29654285D01*
X120819999Y-30082857D01*
X120891428Y-30225714D01*
X120962857Y-30297142D01*
X121105714Y-30368571D01*
X121319999Y-30368571D01*
X120177142Y-29368571D02*
X120177142Y-30368571D01*
X120177142Y-29511428D02*
X120105714Y-29440000D01*
X119962857Y-29368571D01*
X119748571Y-29368571D01*
X119605714Y-29440000D01*
X119534285Y-29582857D01*
X119534285Y-30368571D01*
X118605714Y-30368571D02*
X118748571Y-30297142D01*
X118820000Y-30225714D01*
X118891428Y-30082857D01*
X118891428Y-29654285D01*
X118820000Y-29511428D01*
X118748571Y-29440000D01*
X118605714Y-29368571D01*
X118391428Y-29368571D01*
X118248571Y-29440000D01*
X118177142Y-29511428D01*
X118105714Y-29654285D01*
X118105714Y-30082857D01*
X118177142Y-30225714D01*
X118248571Y-30297142D01*
X118391428Y-30368571D01*
X118605714Y-30368571D01*
X117462857Y-30368571D02*
X117462857Y-29368571D01*
X117462857Y-29511428D02*
X117391428Y-29440000D01*
X117248571Y-29368571D01*
X117034285Y-29368571D01*
X116891428Y-29440000D01*
X116820000Y-29582857D01*
X116820000Y-30368571D01*
X116820000Y-29582857D02*
X116748571Y-29440000D01*
X116605714Y-29368571D01*
X116391428Y-29368571D01*
X116248571Y-29440000D01*
X116177142Y-29582857D01*
X116177142Y-30368571D01*
X115462857Y-30368571D02*
X115462857Y-29368571D01*
X115462857Y-28868571D02*
X115534285Y-28940000D01*
X115462857Y-29011428D01*
X115391428Y-28940000D01*
X115462857Y-28868571D01*
X115462857Y-29011428D01*
X114105714Y-30297142D02*
X114248571Y-30368571D01*
X114534285Y-30368571D01*
X114677142Y-30297142D01*
X114748571Y-30225714D01*
X114820000Y-30082857D01*
X114820000Y-29654285D01*
X114748571Y-29511428D01*
X114677142Y-29440000D01*
X114534285Y-29368571D01*
X114248571Y-29368571D01*
X114105714Y-29440000D01*
X112034285Y-28868571D02*
X111748571Y-28868571D01*
X111605714Y-28940000D01*
X111462857Y-29082857D01*
X111391428Y-29368571D01*
X111391428Y-29868571D01*
X111462857Y-30154285D01*
X111605714Y-30297142D01*
X111748571Y-30368571D01*
X112034285Y-30368571D01*
X112177142Y-30297142D01*
X112320000Y-30154285D01*
X112391428Y-29868571D01*
X112391428Y-29368571D01*
X112320000Y-29082857D01*
X112177142Y-28940000D01*
X112034285Y-28868571D01*
X110748571Y-30368571D02*
X110748571Y-29368571D01*
X110748571Y-29654285D02*
X110677142Y-29511428D01*
X110605714Y-29440000D01*
X110462857Y-29368571D01*
X110320000Y-29368571D01*
X110034285Y-29368571D02*
X109462857Y-29368571D01*
X109820000Y-28868571D02*
X109820000Y-30154285D01*
X109748571Y-30297142D01*
X109605714Y-30368571D01*
X109462857Y-30368571D01*
X108962857Y-30368571D02*
X108962857Y-28868571D01*
X108320000Y-30368571D02*
X108320000Y-29582857D01*
X108391428Y-29440000D01*
X108534285Y-29368571D01*
X108748571Y-29368571D01*
X108891428Y-29440000D01*
X108962857Y-29511428D01*
X107391428Y-30368571D02*
X107534285Y-30297142D01*
X107605714Y-30225714D01*
X107677142Y-30082857D01*
X107677142Y-29654285D01*
X107605714Y-29511428D01*
X107534285Y-29440000D01*
X107391428Y-29368571D01*
X107177142Y-29368571D01*
X107034285Y-29440000D01*
X106962857Y-29511428D01*
X106891428Y-29654285D01*
X106891428Y-30082857D01*
X106962857Y-30225714D01*
X107034285Y-30297142D01*
X107177142Y-30368571D01*
X107391428Y-30368571D01*
X106034285Y-30368571D02*
X106177142Y-30297142D01*
X106248571Y-30154285D01*
X106248571Y-28868571D01*
X105462857Y-30368571D02*
X105462857Y-29368571D01*
X105462857Y-28868571D02*
X105534285Y-28940000D01*
X105462857Y-29011428D01*
X105391428Y-28940000D01*
X105462857Y-28868571D01*
X105462857Y-29011428D01*
X104748571Y-29368571D02*
X104748571Y-30368571D01*
X104748571Y-29511428D02*
X104677142Y-29440000D01*
X104534285Y-29368571D01*
X104320000Y-29368571D01*
X104177142Y-29440000D01*
X104105714Y-29582857D01*
X104105714Y-30368571D01*
X102820000Y-30297142D02*
X102962857Y-30368571D01*
X103248571Y-30368571D01*
X103391428Y-30297142D01*
X103462857Y-30154285D01*
X103462857Y-29582857D01*
X103391428Y-29440000D01*
X103248571Y-29368571D01*
X102962857Y-29368571D01*
X102820000Y-29440000D01*
X102748571Y-29582857D01*
X102748571Y-29725714D01*
X103462857Y-29868571D01*
X101462857Y-30368571D02*
X101462857Y-29582857D01*
X101534285Y-29440000D01*
X101677142Y-29368571D01*
X101962857Y-29368571D01*
X102105714Y-29440000D01*
X101462857Y-30297142D02*
X101605714Y-30368571D01*
X101962857Y-30368571D01*
X102105714Y-30297142D01*
X102177142Y-30154285D01*
X102177142Y-30011428D01*
X102105714Y-29868571D01*
X101962857Y-29797142D01*
X101605714Y-29797142D01*
X101462857Y-29725714D01*
X100748571Y-30368571D02*
X100748571Y-29368571D01*
X100748571Y-29654285D02*
X100677142Y-29511428D01*
X100605714Y-29440000D01*
X100462857Y-29368571D01*
X100320000Y-29368571D01*
X98677142Y-30368571D02*
X98677142Y-28868571D01*
X97820000Y-30368571D02*
X98462857Y-29511428D01*
X97820000Y-28868571D02*
X98677142Y-29725714D01*
X96605714Y-30297142D02*
X96748571Y-30368571D01*
X97034285Y-30368571D01*
X97177142Y-30297142D01*
X97248571Y-30154285D01*
X97248571Y-29582857D01*
X97177142Y-29440000D01*
X97034285Y-29368571D01*
X96748571Y-29368571D01*
X96605714Y-29440000D01*
X96534285Y-29582857D01*
X96534285Y-29725714D01*
X97248571Y-29868571D01*
X96034285Y-29368571D02*
X95677142Y-30368571D01*
X95320000Y-29368571D02*
X95677142Y-30368571D01*
X95820000Y-30725714D01*
X95891428Y-30797142D01*
X96034285Y-30868571D01*
X94748571Y-30368571D02*
X94748571Y-28868571D01*
X94748571Y-29440000D02*
X94605714Y-29368571D01*
X94320000Y-29368571D01*
X94177142Y-29440000D01*
X94105714Y-29511428D01*
X94034285Y-29654285D01*
X94034285Y-30082857D01*
X94105714Y-30225714D01*
X94177142Y-30297142D01*
X94320000Y-30368571D01*
X94605714Y-30368571D01*
X94748571Y-30297142D01*
X93177142Y-30368571D02*
X93320000Y-30297142D01*
X93391428Y-30225714D01*
X93462857Y-30082857D01*
X93462857Y-29654285D01*
X93391428Y-29511428D01*
X93320000Y-29440000D01*
X93177142Y-29368571D01*
X92962857Y-29368571D01*
X92820000Y-29440000D01*
X92748571Y-29511428D01*
X92677142Y-29654285D01*
X92677142Y-30082857D01*
X92748571Y-30225714D01*
X92820000Y-30297142D01*
X92962857Y-30368571D01*
X93177142Y-30368571D01*
X91391428Y-30368571D02*
X91391428Y-29582857D01*
X91462857Y-29440000D01*
X91605714Y-29368571D01*
X91891428Y-29368571D01*
X92034285Y-29440000D01*
X91391428Y-30297142D02*
X91534285Y-30368571D01*
X91891428Y-30368571D01*
X92034285Y-30297142D01*
X92105714Y-30154285D01*
X92105714Y-30011428D01*
X92034285Y-29868571D01*
X91891428Y-29797142D01*
X91534285Y-29797142D01*
X91391428Y-29725714D01*
X90677142Y-30368571D02*
X90677142Y-29368571D01*
X90677142Y-29654285D02*
X90605714Y-29511428D01*
X90534285Y-29440000D01*
X90391428Y-29368571D01*
X90248571Y-29368571D01*
X89105714Y-30368571D02*
X89105714Y-28868571D01*
X89105714Y-30297142D02*
X89248571Y-30368571D01*
X89534285Y-30368571D01*
X89677142Y-30297142D01*
X89748571Y-30225714D01*
X89820000Y-30082857D01*
X89820000Y-29654285D01*
X89748571Y-29511428D01*
X89677142Y-29440000D01*
X89534285Y-29368571D01*
X89248571Y-29368571D01*
X89105714Y-29440000D01*
X88320000Y-30297142D02*
X88320000Y-30368571D01*
X88391428Y-30511428D01*
X88462857Y-30582857D01*
X85391428Y-30368571D02*
X85391428Y-28868571D01*
X85034285Y-28868571D01*
X84820000Y-28940000D01*
X84677142Y-29082857D01*
X84605714Y-29225714D01*
X84534285Y-29511428D01*
X84534285Y-29725714D01*
X84605714Y-30011428D01*
X84677142Y-30154285D01*
X84820000Y-30297142D01*
X85034285Y-30368571D01*
X85391428Y-30368571D01*
X83320000Y-30297142D02*
X83462857Y-30368571D01*
X83748571Y-30368571D01*
X83891428Y-30297142D01*
X83962857Y-30154285D01*
X83962857Y-29582857D01*
X83891428Y-29440000D01*
X83748571Y-29368571D01*
X83462857Y-29368571D01*
X83320000Y-29440000D01*
X83248571Y-29582857D01*
X83248571Y-29725714D01*
X83962857Y-29868571D01*
X82677142Y-30297142D02*
X82534285Y-30368571D01*
X82248571Y-30368571D01*
X82105714Y-30297142D01*
X82034285Y-30154285D01*
X82034285Y-30082857D01*
X82105714Y-29940000D01*
X82248571Y-29868571D01*
X82462857Y-29868571D01*
X82605714Y-29797142D01*
X82677142Y-29654285D01*
X82677142Y-29582857D01*
X82605714Y-29440000D01*
X82462857Y-29368571D01*
X82248571Y-29368571D01*
X82105714Y-29440000D01*
X81391428Y-30368571D02*
X81391428Y-29368571D01*
X81391428Y-28868571D02*
X81462857Y-28940000D01*
X81391428Y-29011428D01*
X81320000Y-28940000D01*
X81391428Y-28868571D01*
X81391428Y-29011428D01*
X80034285Y-29368571D02*
X80034285Y-30582857D01*
X80105714Y-30725714D01*
X80177142Y-30797142D01*
X80320000Y-30868571D01*
X80534285Y-30868571D01*
X80677142Y-30797142D01*
X80034285Y-30297142D02*
X80177142Y-30368571D01*
X80462857Y-30368571D01*
X80605714Y-30297142D01*
X80677142Y-30225714D01*
X80748571Y-30082857D01*
X80748571Y-29654285D01*
X80677142Y-29511428D01*
X80605714Y-29440000D01*
X80462857Y-29368571D01*
X80177142Y-29368571D01*
X80034285Y-29440000D01*
X79320000Y-29368571D02*
X79320000Y-30368571D01*
X79320000Y-29511428D02*
X79248571Y-29440000D01*
X79105714Y-29368571D01*
X78891428Y-29368571D01*
X78748571Y-29440000D01*
X78677142Y-29582857D01*
X78677142Y-30368571D01*
X77391428Y-30297142D02*
X77534285Y-30368571D01*
X77820000Y-30368571D01*
X77962857Y-30297142D01*
X78034285Y-30154285D01*
X78034285Y-29582857D01*
X77962857Y-29440000D01*
X77820000Y-29368571D01*
X77534285Y-29368571D01*
X77391428Y-29440000D01*
X77320000Y-29582857D01*
X77320000Y-29725714D01*
X78034285Y-29868571D01*
X76034285Y-30368571D02*
X76034285Y-28868571D01*
X76034285Y-30297142D02*
X76177142Y-30368571D01*
X76462857Y-30368571D01*
X76605714Y-30297142D01*
X76677142Y-30225714D01*
X76748571Y-30082857D01*
X76748571Y-29654285D01*
X76677142Y-29511428D01*
X76605714Y-29440000D01*
X76462857Y-29368571D01*
X76177142Y-29368571D01*
X76034285Y-29440000D01*
X74177142Y-30368571D02*
X74177142Y-28868571D01*
X74177142Y-29440000D02*
X74034285Y-29368571D01*
X73748571Y-29368571D01*
X73605714Y-29440000D01*
X73534285Y-29511428D01*
X73462857Y-29654285D01*
X73462857Y-30082857D01*
X73534285Y-30225714D01*
X73605714Y-30297142D01*
X73748571Y-30368571D01*
X74034285Y-30368571D01*
X74177142Y-30297142D01*
X72962857Y-29368571D02*
X72605714Y-30368571D01*
X72248571Y-29368571D02*
X72605714Y-30368571D01*
X72748571Y-30725714D01*
X72820000Y-30797142D01*
X72962857Y-30868571D01*
X70605714Y-30297142D02*
X70391428Y-30368571D01*
X70034285Y-30368571D01*
X69891428Y-30297142D01*
X69820000Y-30225714D01*
X69748571Y-30082857D01*
X69748571Y-29940000D01*
X69820000Y-29797142D01*
X69891428Y-29725714D01*
X70034285Y-29654285D01*
X70320000Y-29582857D01*
X70462857Y-29511428D01*
X70534285Y-29440000D01*
X70605714Y-29297142D01*
X70605714Y-29154285D01*
X70534285Y-29011428D01*
X70462857Y-28940000D01*
X70320000Y-28868571D01*
X69962857Y-28868571D01*
X69748571Y-28940000D01*
X68534285Y-30297142D02*
X68677142Y-30368571D01*
X68962857Y-30368571D01*
X69105714Y-30297142D01*
X69177142Y-30154285D01*
X69177142Y-29582857D01*
X69105714Y-29440000D01*
X68962857Y-29368571D01*
X68677142Y-29368571D01*
X68534285Y-29440000D01*
X68462857Y-29582857D01*
X68462857Y-29725714D01*
X69177142Y-29868571D01*
X67177142Y-29368571D02*
X67177142Y-30368571D01*
X67820000Y-29368571D02*
X67820000Y-30154285D01*
X67748571Y-30297142D01*
X67605714Y-30368571D01*
X67391428Y-30368571D01*
X67248571Y-30297142D01*
X67177142Y-30225714D01*
X66462857Y-29368571D02*
X66462857Y-30368571D01*
X66462857Y-29511428D02*
X66391428Y-29440000D01*
X66248571Y-29368571D01*
X66034285Y-29368571D01*
X65891428Y-29440000D01*
X65820000Y-29582857D01*
X65820000Y-30368571D01*
X64462857Y-29368571D02*
X64462857Y-30582857D01*
X64534285Y-30725714D01*
X64605714Y-30797142D01*
X64748571Y-30868571D01*
X64962857Y-30868571D01*
X65105714Y-30797142D01*
X64462857Y-30297142D02*
X64605714Y-30368571D01*
X64891428Y-30368571D01*
X65034285Y-30297142D01*
X65105714Y-30225714D01*
X65177142Y-30082857D01*
X65177142Y-29654285D01*
X65105714Y-29511428D01*
X65034285Y-29440000D01*
X64891428Y-29368571D01*
X64605714Y-29368571D01*
X64462857Y-29440000D01*
X63748571Y-30368571D02*
X63748571Y-28868571D01*
X63105714Y-30368571D02*
X63105714Y-29582857D01*
X63177142Y-29440000D01*
X63319999Y-29368571D01*
X63534285Y-29368571D01*
X63677142Y-29440000D01*
X63748571Y-29511428D01*
X61819999Y-30297142D02*
X61962857Y-30368571D01*
X62248571Y-30368571D01*
X62391428Y-30297142D01*
X62462857Y-30154285D01*
X62462857Y-29582857D01*
X62391428Y-29440000D01*
X62248571Y-29368571D01*
X61962857Y-29368571D01*
X61819999Y-29440000D01*
X61748571Y-29582857D01*
X61748571Y-29725714D01*
X62462857Y-29868571D01*
X60891428Y-30368571D02*
X61034285Y-30297142D01*
X61105714Y-30225714D01*
X61177142Y-30082857D01*
X61177142Y-29654285D01*
X61105714Y-29511428D01*
X61034285Y-29440000D01*
X60891428Y-29368571D01*
X60677142Y-29368571D01*
X60534285Y-29440000D01*
X60462857Y-29511428D01*
X60391428Y-29654285D01*
X60391428Y-30082857D01*
X60462857Y-30225714D01*
X60534285Y-30297142D01*
X60677142Y-30368571D01*
X60891428Y-30368571D01*
X59748571Y-29368571D02*
X59748571Y-30368571D01*
X59748571Y-29511428D02*
X59677142Y-29440000D01*
X59534285Y-29368571D01*
X59320000Y-29368571D01*
X59177142Y-29440000D01*
X59105714Y-29582857D01*
X59105714Y-30368571D01*
X56962857Y-28868571D02*
X56677142Y-28868571D01*
X56534285Y-28940000D01*
X56391428Y-29082857D01*
X56320000Y-29368571D01*
X56320000Y-29868571D01*
X56391428Y-30154285D01*
X56534285Y-30297142D01*
X56677142Y-30368571D01*
X56962857Y-30368571D01*
X57105714Y-30297142D01*
X57248571Y-30154285D01*
X57320000Y-29868571D01*
X57320000Y-29368571D01*
X57248571Y-29082857D01*
X57105714Y-28940000D01*
X56962857Y-28868571D01*
X55677142Y-30368571D02*
X55677142Y-28868571D01*
X55034285Y-30368571D02*
X55034285Y-29582857D01*
X55105714Y-29440000D01*
X55248571Y-29368571D01*
X55462857Y-29368571D01*
X55605714Y-29440000D01*
X55677142Y-29511428D01*
X54248571Y-30297142D02*
X54248571Y-30368571D01*
X54320000Y-30511428D01*
X54391428Y-30582857D01*
X52534285Y-29011428D02*
X52462857Y-28940000D01*
X52320000Y-28868571D01*
X51962857Y-28868571D01*
X51820000Y-28940000D01*
X51748571Y-29011428D01*
X51677142Y-29154285D01*
X51677142Y-29297142D01*
X51748571Y-29511428D01*
X52605714Y-30368571D01*
X51677142Y-30368571D01*
X50748571Y-28868571D02*
X50605714Y-28868571D01*
X50462857Y-28940000D01*
X50391428Y-29011428D01*
X50320000Y-29154285D01*
X50248571Y-29440000D01*
X50248571Y-29797142D01*
X50320000Y-30082857D01*
X50391428Y-30225714D01*
X50462857Y-30297142D01*
X50605714Y-30368571D01*
X50748571Y-30368571D01*
X50891428Y-30297142D01*
X50962857Y-30225714D01*
X51034285Y-30082857D01*
X51105714Y-29797142D01*
X51105714Y-29440000D01*
X51034285Y-29154285D01*
X50962857Y-29011428D01*
X50891428Y-28940000D01*
X50748571Y-28868571D01*
X48820000Y-30368571D02*
X49677142Y-30368571D01*
X49248571Y-30368571D02*
X49248571Y-28868571D01*
X49391428Y-29082857D01*
X49534285Y-29225714D01*
X49677142Y-29297142D01*
X48105714Y-30368571D02*
X47820000Y-30368571D01*
X47677142Y-30297142D01*
X47605714Y-30225714D01*
X47462857Y-30011428D01*
X47391428Y-29725714D01*
X47391428Y-29154285D01*
X47462857Y-29011428D01*
X47534285Y-28940000D01*
X47677142Y-28868571D01*
X47962857Y-28868571D01*
X48105714Y-28940000D01*
X48177142Y-29011428D01*
X48248571Y-29154285D01*
X48248571Y-29511428D01*
X48177142Y-29654285D01*
X48105714Y-29725714D01*
X47962857Y-29797142D01*
X47677142Y-29797142D01*
X47534285Y-29725714D01*
X47462857Y-29654285D01*
X47391428Y-29511428D01*
D11*
G36*
X205224233Y-50679019D02*
G01*
X204314066Y-50683400D01*
X204314066Y-50920467D01*
X205224233Y-50924847D01*
X206134399Y-50929227D01*
X206134399Y-50674639D01*
X205224233Y-50679019D01*
X205224233Y-50679019D01*
G37*
X205224233Y-50679019D02*
X204314066Y-50683400D01*
X204314066Y-50920467D01*
X205224233Y-50924847D01*
X206134399Y-50929227D01*
X206134399Y-50674639D01*
X205224233Y-50679019D01*
G36*
X205241166Y-49425896D02*
G01*
X204601933Y-49430333D01*
X204596793Y-49539964D01*
X204595693Y-49603531D01*
X204600875Y-49642309D01*
X204613968Y-49665054D01*
X204621196Y-49671197D01*
X204639642Y-49678103D01*
X204675922Y-49683507D01*
X204733038Y-49687543D01*
X204813992Y-49690341D01*
X204921786Y-49692034D01*
X205059421Y-49692754D01*
X205113169Y-49692800D01*
X205575600Y-49692800D01*
X205575600Y-49885558D01*
X205575274Y-49968777D01*
X205573531Y-50024236D01*
X205569227Y-50058045D01*
X205561213Y-50076309D01*
X205548344Y-50085135D01*
X205537500Y-50088527D01*
X205510810Y-50091265D01*
X205455149Y-50093743D01*
X205375411Y-50095857D01*
X205276492Y-50097503D01*
X205163286Y-50098575D01*
X205047432Y-50098969D01*
X204898018Y-50099694D01*
X204775825Y-50101666D01*
X204682385Y-50104826D01*
X204619229Y-50109116D01*
X204587888Y-50114479D01*
X204584789Y-50116473D01*
X204578925Y-50141909D01*
X204575048Y-50189295D01*
X204574114Y-50230116D01*
X204577323Y-50292860D01*
X204588366Y-50330637D01*
X204603960Y-50348309D01*
X204630439Y-50355293D01*
X204685495Y-50360989D01*
X204763862Y-50365410D01*
X204860275Y-50368568D01*
X204969468Y-50370473D01*
X205086176Y-50371138D01*
X205205133Y-50370576D01*
X205321074Y-50368796D01*
X205428734Y-50365813D01*
X205522847Y-50361636D01*
X205598148Y-50356278D01*
X205649372Y-50349752D01*
X205664660Y-50345930D01*
X205721107Y-50321896D01*
X205764732Y-50291243D01*
X205806962Y-50244779D01*
X205832423Y-50210959D01*
X205880400Y-50144919D01*
X205880400Y-49421459D01*
X205241166Y-49425896D01*
X205241166Y-49425896D01*
G37*
X205241166Y-49425896D02*
X204601933Y-49430333D01*
X204596793Y-49539964D01*
X204595693Y-49603531D01*
X204600875Y-49642309D01*
X204613968Y-49665054D01*
X204621196Y-49671197D01*
X204639642Y-49678103D01*
X204675922Y-49683507D01*
X204733038Y-49687543D01*
X204813992Y-49690341D01*
X204921786Y-49692034D01*
X205059421Y-49692754D01*
X205113169Y-49692800D01*
X205575600Y-49692800D01*
X205575600Y-49885558D01*
X205575274Y-49968777D01*
X205573531Y-50024236D01*
X205569227Y-50058045D01*
X205561213Y-50076309D01*
X205548344Y-50085135D01*
X205537500Y-50088527D01*
X205510810Y-50091265D01*
X205455149Y-50093743D01*
X205375411Y-50095857D01*
X205276492Y-50097503D01*
X205163286Y-50098575D01*
X205047432Y-50098969D01*
X204898018Y-50099694D01*
X204775825Y-50101666D01*
X204682385Y-50104826D01*
X204619229Y-50109116D01*
X204587888Y-50114479D01*
X204584789Y-50116473D01*
X204578925Y-50141909D01*
X204575048Y-50189295D01*
X204574114Y-50230116D01*
X204577323Y-50292860D01*
X204588366Y-50330637D01*
X204603960Y-50348309D01*
X204630439Y-50355293D01*
X204685495Y-50360989D01*
X204763862Y-50365410D01*
X204860275Y-50368568D01*
X204969468Y-50370473D01*
X205086176Y-50371138D01*
X205205133Y-50370576D01*
X205321074Y-50368796D01*
X205428734Y-50365813D01*
X205522847Y-50361636D01*
X205598148Y-50356278D01*
X205649372Y-50349752D01*
X205664660Y-50345930D01*
X205721107Y-50321896D01*
X205764732Y-50291243D01*
X205806962Y-50244779D01*
X205832423Y-50210959D01*
X205880400Y-50144919D01*
X205880400Y-49421459D01*
X205241166Y-49425896D01*
G36*
X205575600Y-47118933D02*
G01*
X204881333Y-47118933D01*
X204881333Y-46864933D01*
X204576533Y-46864933D01*
X204576533Y-47295936D01*
X204576968Y-47441048D01*
X204578584Y-47556025D01*
X204581845Y-47644592D01*
X204587217Y-47710474D01*
X204595164Y-47757395D01*
X204606150Y-47789080D01*
X204620642Y-47809253D01*
X204639103Y-47821639D01*
X204642326Y-47823092D01*
X204669441Y-47828411D01*
X204722532Y-47834016D01*
X204793725Y-47839213D01*
X204868633Y-47843044D01*
X205067600Y-47851241D01*
X205067600Y-48134285D01*
X204690833Y-48138843D01*
X204314066Y-48143400D01*
X204314066Y-48380467D01*
X205224233Y-48384847D01*
X206134399Y-48389227D01*
X206134399Y-48134933D01*
X205389333Y-48134933D01*
X205389333Y-47847067D01*
X205504278Y-47847067D01*
X205620946Y-47834628D01*
X205717721Y-47796165D01*
X205798297Y-47729958D01*
X205825123Y-47697583D01*
X205880400Y-47624300D01*
X205880400Y-47372933D01*
X205575600Y-47372933D01*
X205575600Y-47465225D01*
X205572487Y-47524983D01*
X205561654Y-47559615D01*
X205545966Y-47574777D01*
X205519084Y-47580683D01*
X205463337Y-47585669D01*
X205383719Y-47589479D01*
X205285225Y-47591856D01*
X205198833Y-47592552D01*
X204881333Y-47593067D01*
X204881333Y-47372933D01*
X205575600Y-47372933D01*
X205880400Y-47372933D01*
X205880400Y-46864933D01*
X205575600Y-46864933D01*
X205575600Y-47118933D01*
X205575600Y-47118933D01*
G37*
X205575600Y-47118933D02*
X204881333Y-47118933D01*
X204881333Y-46864933D01*
X204576533Y-46864933D01*
X204576533Y-47295936D01*
X204576968Y-47441048D01*
X204578584Y-47556025D01*
X204581845Y-47644592D01*
X204587217Y-47710474D01*
X204595164Y-47757395D01*
X204606150Y-47789080D01*
X204620642Y-47809253D01*
X204639103Y-47821639D01*
X204642326Y-47823092D01*
X204669441Y-47828411D01*
X204722532Y-47834016D01*
X204793725Y-47839213D01*
X204868633Y-47843044D01*
X205067600Y-47851241D01*
X205067600Y-48134285D01*
X204690833Y-48138843D01*
X204314066Y-48143400D01*
X204314066Y-48380467D01*
X205224233Y-48384847D01*
X206134399Y-48389227D01*
X206134399Y-48134933D01*
X205389333Y-48134933D01*
X205389333Y-47847067D01*
X205504278Y-47847067D01*
X205620946Y-47834628D01*
X205717721Y-47796165D01*
X205798297Y-47729958D01*
X205825123Y-47697583D01*
X205880400Y-47624300D01*
X205880400Y-47372933D01*
X205575600Y-47372933D01*
X205575600Y-47465225D01*
X205572487Y-47524983D01*
X205561654Y-47559615D01*
X205545966Y-47574777D01*
X205519084Y-47580683D01*
X205463337Y-47585669D01*
X205383719Y-47589479D01*
X205285225Y-47591856D01*
X205198833Y-47592552D01*
X204881333Y-47593067D01*
X204881333Y-47372933D01*
X205575600Y-47372933D01*
X205880400Y-47372933D01*
X205880400Y-46864933D01*
X205575600Y-46864933D01*
X205575600Y-47118933D01*
G36*
X204474933Y-45108946D02*
G01*
X204475133Y-45318253D01*
X204475765Y-45495711D01*
X204476872Y-45643336D01*
X204478502Y-45763145D01*
X204480697Y-45857152D01*
X204483505Y-45927373D01*
X204486970Y-45975826D01*
X204491137Y-46004524D01*
X204495253Y-46014880D01*
X204520576Y-46024184D01*
X204568376Y-46030942D01*
X204627765Y-46034795D01*
X204687859Y-46035383D01*
X204737770Y-46032346D01*
X204766614Y-46025324D01*
X204768444Y-46023911D01*
X204770598Y-46005298D01*
X204772618Y-45955989D01*
X204774463Y-45879158D01*
X204776095Y-45777975D01*
X204777473Y-45655611D01*
X204778559Y-45515239D01*
X204779312Y-45360031D01*
X204779693Y-45193157D01*
X204779733Y-45117978D01*
X204779733Y-44223333D01*
X204474933Y-44223333D01*
X204474933Y-45108946D01*
X204474933Y-45108946D01*
G37*
X204474933Y-45108946D02*
X204475133Y-45318253D01*
X204475765Y-45495711D01*
X204476872Y-45643336D01*
X204478502Y-45763145D01*
X204480697Y-45857152D01*
X204483505Y-45927373D01*
X204486970Y-45975826D01*
X204491137Y-46004524D01*
X204495253Y-46014880D01*
X204520576Y-46024184D01*
X204568376Y-46030942D01*
X204627765Y-46034795D01*
X204687859Y-46035383D01*
X204737770Y-46032346D01*
X204766614Y-46025324D01*
X204768444Y-46023911D01*
X204770598Y-46005298D01*
X204772618Y-45955989D01*
X204774463Y-45879158D01*
X204776095Y-45777975D01*
X204777473Y-45655611D01*
X204778559Y-45515239D01*
X204779312Y-45360031D01*
X204779693Y-45193157D01*
X204779733Y-45117978D01*
X204779733Y-44223333D01*
X204474933Y-44223333D01*
X204474933Y-45108946D01*
G36*
X205166625Y-44430766D02*
G01*
X205102846Y-44503891D01*
X205061873Y-44565431D01*
X205039537Y-44624277D01*
X205031667Y-44689320D01*
X205031625Y-44718579D01*
X205051893Y-44879261D01*
X205104878Y-45036061D01*
X205189517Y-45187518D01*
X205304748Y-45332170D01*
X205449507Y-45468557D01*
X205622731Y-45595218D01*
X205707145Y-45647170D01*
X205785758Y-45689473D01*
X205844311Y-45710134D01*
X205889061Y-45708834D01*
X205926259Y-45685251D01*
X205962160Y-45639066D01*
X205965439Y-45633951D01*
X205993598Y-45584852D01*
X206011902Y-45543926D01*
X206015866Y-45527067D01*
X206001988Y-45506582D01*
X205963268Y-45472496D01*
X205904076Y-45428343D01*
X205840462Y-45385230D01*
X205762547Y-45331826D01*
X205686303Y-45275143D01*
X205621350Y-45222571D01*
X205582865Y-45187314D01*
X205500673Y-45103866D01*
X205982000Y-45103866D01*
X205982000Y-44849866D01*
X205669732Y-44849866D01*
X205560047Y-44848992D01*
X205468850Y-44846511D01*
X205400275Y-44842635D01*
X205358457Y-44837575D01*
X205347249Y-44833337D01*
X205339457Y-44807935D01*
X205330993Y-44761639D01*
X205326957Y-44731737D01*
X205316882Y-44646666D01*
X205982000Y-44646666D01*
X205982000Y-44375733D01*
X205218090Y-44375733D01*
X205166625Y-44430766D01*
X205166625Y-44430766D01*
G37*
X205166625Y-44430766D02*
X205102846Y-44503891D01*
X205061873Y-44565431D01*
X205039537Y-44624277D01*
X205031667Y-44689320D01*
X205031625Y-44718579D01*
X205051893Y-44879261D01*
X205104878Y-45036061D01*
X205189517Y-45187518D01*
X205304748Y-45332170D01*
X205449507Y-45468557D01*
X205622731Y-45595218D01*
X205707145Y-45647170D01*
X205785758Y-45689473D01*
X205844311Y-45710134D01*
X205889061Y-45708834D01*
X205926259Y-45685251D01*
X205962160Y-45639066D01*
X205965439Y-45633951D01*
X205993598Y-45584852D01*
X206011902Y-45543926D01*
X206015866Y-45527067D01*
X206001988Y-45506582D01*
X205963268Y-45472496D01*
X205904076Y-45428343D01*
X205840462Y-45385230D01*
X205762547Y-45331826D01*
X205686303Y-45275143D01*
X205621350Y-45222571D01*
X205582865Y-45187314D01*
X205500673Y-45103866D01*
X205982000Y-45103866D01*
X205982000Y-44849866D01*
X205669732Y-44849866D01*
X205560047Y-44848992D01*
X205468850Y-44846511D01*
X205400275Y-44842635D01*
X205358457Y-44837575D01*
X205347249Y-44833337D01*
X205339457Y-44807935D01*
X205330993Y-44761639D01*
X205326957Y-44731737D01*
X205316882Y-44646666D01*
X205982000Y-44646666D01*
X205982000Y-44375733D01*
X205218090Y-44375733D01*
X205166625Y-44430766D01*
G36*
X204501293Y-42872434D02*
G01*
X204491919Y-42891304D01*
X204484976Y-42920451D01*
X204480136Y-42964518D01*
X204477069Y-43028143D01*
X204475445Y-43115967D01*
X204474935Y-43232631D01*
X204474933Y-43243583D01*
X204475437Y-43347875D01*
X204476842Y-43441605D01*
X204478987Y-43519102D01*
X204481709Y-43574698D01*
X204484847Y-43602723D01*
X204485211Y-43603882D01*
X204497839Y-43618051D01*
X204526713Y-43626371D01*
X204578482Y-43630103D01*
X204626322Y-43630666D01*
X204689941Y-43629298D01*
X204739750Y-43625675D01*
X204766629Y-43620521D01*
X204768444Y-43619378D01*
X204772350Y-43599353D01*
X204775670Y-43551592D01*
X204778149Y-43482226D01*
X204779532Y-43397382D01*
X204779733Y-43348444D01*
X204779733Y-43088800D01*
X205761866Y-43088800D01*
X205761866Y-42834800D01*
X204527653Y-42834800D01*
X204501293Y-42872434D01*
X204501293Y-42872434D01*
G37*
X204501293Y-42872434D02*
X204491919Y-42891304D01*
X204484976Y-42920451D01*
X204480136Y-42964518D01*
X204477069Y-43028143D01*
X204475445Y-43115967D01*
X204474935Y-43232631D01*
X204474933Y-43243583D01*
X204475437Y-43347875D01*
X204476842Y-43441605D01*
X204478987Y-43519102D01*
X204481709Y-43574698D01*
X204484847Y-43602723D01*
X204485211Y-43603882D01*
X204497839Y-43618051D01*
X204526713Y-43626371D01*
X204578482Y-43630103D01*
X204626322Y-43630666D01*
X204689941Y-43629298D01*
X204739750Y-43625675D01*
X204766629Y-43620521D01*
X204768444Y-43619378D01*
X204772350Y-43599353D01*
X204775670Y-43551592D01*
X204778149Y-43482226D01*
X204779532Y-43397382D01*
X204779733Y-43348444D01*
X204779733Y-43088800D01*
X205761866Y-43088800D01*
X205761866Y-42834800D01*
X204527653Y-42834800D01*
X204501293Y-42872434D01*
G36*
X204458000Y-42187946D02*
G01*
X204458396Y-42347930D01*
X204459647Y-42476452D01*
X204461841Y-42575910D01*
X204465068Y-42648701D01*
X204469418Y-42697221D01*
X204474982Y-42723869D01*
X204478319Y-42729813D01*
X204506090Y-42740898D01*
X204557863Y-42748131D01*
X204610400Y-42750133D01*
X204674398Y-42747099D01*
X204722279Y-42739001D01*
X204742480Y-42729813D01*
X204752506Y-42702306D01*
X204759126Y-42642822D01*
X204762399Y-42550666D01*
X204762800Y-42492746D01*
X204762800Y-42276000D01*
X205118400Y-42276000D01*
X205118400Y-42022000D01*
X204762800Y-42022000D01*
X204762800Y-41666400D01*
X204458000Y-41666400D01*
X204458000Y-42187946D01*
X204458000Y-42187946D01*
G37*
X204458000Y-42187946D02*
X204458396Y-42347930D01*
X204459647Y-42476452D01*
X204461841Y-42575910D01*
X204465068Y-42648701D01*
X204469418Y-42697221D01*
X204474982Y-42723869D01*
X204478319Y-42729813D01*
X204506090Y-42740898D01*
X204557863Y-42748131D01*
X204610400Y-42750133D01*
X204674398Y-42747099D01*
X204722279Y-42739001D01*
X204742480Y-42729813D01*
X204752506Y-42702306D01*
X204759126Y-42642822D01*
X204762399Y-42550666D01*
X204762800Y-42492746D01*
X204762800Y-42276000D01*
X205118400Y-42276000D01*
X205118400Y-42022000D01*
X204762800Y-42022000D01*
X204762800Y-41666400D01*
X204458000Y-41666400D01*
X204458000Y-42187946D01*
G36*
X205065219Y-41789167D02*
G01*
X205062418Y-41847836D01*
X205064310Y-41897505D01*
X205070716Y-41928550D01*
X205086575Y-41949436D01*
X205117568Y-41962132D01*
X205169375Y-41968609D01*
X205247677Y-41970836D01*
X205276174Y-41970969D01*
X205342242Y-41971535D01*
X205380804Y-41974292D01*
X205398221Y-41981257D01*
X205400855Y-41994447D01*
X205397057Y-42009300D01*
X205350095Y-42117573D01*
X205274079Y-42224921D01*
X205167253Y-42333585D01*
X205095194Y-42394352D01*
X205048163Y-42435365D01*
X205014106Y-42471753D01*
X204999935Y-42496064D01*
X204999866Y-42497138D01*
X205012302Y-42532196D01*
X205043603Y-42575956D01*
X205084763Y-42619020D01*
X205126775Y-42651988D01*
X205160630Y-42665460D01*
X205161173Y-42665466D01*
X205197658Y-42653455D01*
X205249784Y-42620916D01*
X205311219Y-42573095D01*
X205375633Y-42515234D01*
X205436693Y-42452578D01*
X205479266Y-42402016D01*
X205549085Y-42311781D01*
X205577550Y-42355174D01*
X205614032Y-42402974D01*
X205665424Y-42460134D01*
X205726174Y-42521583D01*
X205790734Y-42582252D01*
X205853555Y-42637068D01*
X205909085Y-42680963D01*
X205951776Y-42708865D01*
X205972770Y-42716266D01*
X206000301Y-42706483D01*
X206036813Y-42682873D01*
X206037773Y-42682122D01*
X206079980Y-42640907D01*
X206115021Y-42592667D01*
X206137444Y-42546751D01*
X206141793Y-42512505D01*
X206139731Y-42507375D01*
X206121027Y-42486169D01*
X206083134Y-42450052D01*
X206033048Y-42405590D01*
X206013410Y-42388831D01*
X205912884Y-42297072D01*
X205836833Y-42210713D01*
X205778576Y-42121871D01*
X205764120Y-42094641D01*
X205738719Y-42041961D01*
X205728625Y-42006909D01*
X205737709Y-41985896D01*
X205769845Y-41975333D01*
X205828904Y-41971632D01*
X205897333Y-41971200D01*
X206066666Y-41971200D01*
X206066666Y-41734133D01*
X205071305Y-41734133D01*
X205065219Y-41789167D01*
X205065219Y-41789167D01*
G37*
X205065219Y-41789167D02*
X205062418Y-41847836D01*
X205064310Y-41897505D01*
X205070716Y-41928550D01*
X205086575Y-41949436D01*
X205117568Y-41962132D01*
X205169375Y-41968609D01*
X205247677Y-41970836D01*
X205276174Y-41970969D01*
X205342242Y-41971535D01*
X205380804Y-41974292D01*
X205398221Y-41981257D01*
X205400855Y-41994447D01*
X205397057Y-42009300D01*
X205350095Y-42117573D01*
X205274079Y-42224921D01*
X205167253Y-42333585D01*
X205095194Y-42394352D01*
X205048163Y-42435365D01*
X205014106Y-42471753D01*
X204999935Y-42496064D01*
X204999866Y-42497138D01*
X205012302Y-42532196D01*
X205043603Y-42575956D01*
X205084763Y-42619020D01*
X205126775Y-42651988D01*
X205160630Y-42665460D01*
X205161173Y-42665466D01*
X205197658Y-42653455D01*
X205249784Y-42620916D01*
X205311219Y-42573095D01*
X205375633Y-42515234D01*
X205436693Y-42452578D01*
X205479266Y-42402016D01*
X205549085Y-42311781D01*
X205577550Y-42355174D01*
X205614032Y-42402974D01*
X205665424Y-42460134D01*
X205726174Y-42521583D01*
X205790734Y-42582252D01*
X205853555Y-42637068D01*
X205909085Y-42680963D01*
X205951776Y-42708865D01*
X205972770Y-42716266D01*
X206000301Y-42706483D01*
X206036813Y-42682873D01*
X206037773Y-42682122D01*
X206079980Y-42640907D01*
X206115021Y-42592667D01*
X206137444Y-42546751D01*
X206141793Y-42512505D01*
X206139731Y-42507375D01*
X206121027Y-42486169D01*
X206083134Y-42450052D01*
X206033048Y-42405590D01*
X206013410Y-42388831D01*
X205912884Y-42297072D01*
X205836833Y-42210713D01*
X205778576Y-42121871D01*
X205764120Y-42094641D01*
X205738719Y-42041961D01*
X205728625Y-42006909D01*
X205737709Y-41985896D01*
X205769845Y-41975333D01*
X205828904Y-41971632D01*
X205897333Y-41971200D01*
X206066666Y-41971200D01*
X206066666Y-41734133D01*
X205071305Y-41734133D01*
X205065219Y-41789167D01*
G36*
X205075412Y-40413392D02*
G01*
X204943854Y-40413684D01*
X204839549Y-40414381D01*
X204759188Y-40415655D01*
X204699464Y-40417678D01*
X204657069Y-40420622D01*
X204628697Y-40424659D01*
X204611040Y-40429961D01*
X204600791Y-40436700D01*
X204594642Y-40445048D01*
X204593670Y-40446820D01*
X204586878Y-40477828D01*
X204582234Y-40539550D01*
X204579861Y-40628893D01*
X204579882Y-40742765D01*
X204580374Y-40781253D01*
X204585000Y-41082200D01*
X204721248Y-41087062D01*
X204786266Y-41087945D01*
X204837707Y-41085962D01*
X204866642Y-41081541D01*
X204869415Y-41080007D01*
X204874074Y-41059309D01*
X204877880Y-41011870D01*
X204880432Y-40944812D01*
X204881333Y-40867711D01*
X204881333Y-40667333D01*
X205863466Y-40667333D01*
X205863466Y-40413333D01*
X205237529Y-40413333D01*
X205075412Y-40413392D01*
X205075412Y-40413392D01*
G37*
X205075412Y-40413392D02*
X204943854Y-40413684D01*
X204839549Y-40414381D01*
X204759188Y-40415655D01*
X204699464Y-40417678D01*
X204657069Y-40420622D01*
X204628697Y-40424659D01*
X204611040Y-40429961D01*
X204600791Y-40436700D01*
X204594642Y-40445048D01*
X204593670Y-40446820D01*
X204586878Y-40477828D01*
X204582234Y-40539550D01*
X204579861Y-40628893D01*
X204579882Y-40742765D01*
X204580374Y-40781253D01*
X204585000Y-41082200D01*
X204721248Y-41087062D01*
X204786266Y-41087945D01*
X204837707Y-41085962D01*
X204866642Y-41081541D01*
X204869415Y-41080007D01*
X204874074Y-41059309D01*
X204877880Y-41011870D01*
X204880432Y-40944812D01*
X204881333Y-40867711D01*
X204881333Y-40667333D01*
X205863466Y-40667333D01*
X205863466Y-40413333D01*
X205237529Y-40413333D01*
X205075412Y-40413392D01*
G36*
X204559600Y-39600533D02*
G01*
X204237866Y-39600533D01*
X204237866Y-39854533D01*
X204559600Y-39854533D01*
X204559600Y-40074071D01*
X204560015Y-40164705D01*
X204561798Y-40227317D01*
X204565757Y-40267746D01*
X204572698Y-40291834D01*
X204583427Y-40305419D01*
X204592353Y-40311137D01*
X204630049Y-40321263D01*
X204686735Y-40326422D01*
X204747853Y-40326272D01*
X204798843Y-40320473D01*
X204813600Y-40316324D01*
X204844057Y-40296555D01*
X204851440Y-40288027D01*
X204854403Y-40267203D01*
X204857128Y-40216586D01*
X204859529Y-40140250D01*
X204861517Y-40042269D01*
X204863005Y-39926716D01*
X204863905Y-39797665D01*
X204864140Y-39697900D01*
X204864400Y-39126400D01*
X204559600Y-39126400D01*
X204559600Y-39600533D01*
X204559600Y-39600533D01*
G37*
X204559600Y-39600533D02*
X204237866Y-39600533D01*
X204237866Y-39854533D01*
X204559600Y-39854533D01*
X204559600Y-40074071D01*
X204560015Y-40164705D01*
X204561798Y-40227317D01*
X204565757Y-40267746D01*
X204572698Y-40291834D01*
X204583427Y-40305419D01*
X204592353Y-40311137D01*
X204630049Y-40321263D01*
X204686735Y-40326422D01*
X204747853Y-40326272D01*
X204798843Y-40320473D01*
X204813600Y-40316324D01*
X204844057Y-40296555D01*
X204851440Y-40288027D01*
X204854403Y-40267203D01*
X204857128Y-40216586D01*
X204859529Y-40140250D01*
X204861517Y-40042269D01*
X204863005Y-39926716D01*
X204863905Y-39797665D01*
X204864140Y-39697900D01*
X204864400Y-39126400D01*
X204559600Y-39126400D01*
X204559600Y-39600533D01*
G36*
X205441301Y-39571853D02*
G01*
X205387659Y-39583159D01*
X205361493Y-39592098D01*
X205261877Y-39644933D01*
X205184328Y-39716279D01*
X205131332Y-39801222D01*
X205105374Y-39894850D01*
X205108943Y-39992249D01*
X205127764Y-40054044D01*
X205184136Y-40147178D01*
X205265064Y-40219110D01*
X205367757Y-40268609D01*
X205489422Y-40294448D01*
X205627266Y-40295395D01*
X205666668Y-40291254D01*
X205782790Y-40261647D01*
X205880760Y-40206028D01*
X205956666Y-40126736D01*
X205966380Y-40112201D01*
X206007966Y-40017492D01*
X206018188Y-39924093D01*
X205724324Y-39924093D01*
X205721374Y-39944556D01*
X205695701Y-40005839D01*
X205646492Y-40043320D01*
X205572956Y-40057560D01*
X205562115Y-40057733D01*
X205497488Y-40050576D01*
X205451744Y-40026498D01*
X205445458Y-40020915D01*
X205412898Y-39969520D01*
X205408982Y-39910327D01*
X205433852Y-39853828D01*
X205443085Y-39842925D01*
X205493650Y-39811510D01*
X205558469Y-39800831D01*
X205625186Y-39810672D01*
X205681446Y-39840820D01*
X205688328Y-39847189D01*
X205718109Y-39885281D01*
X205724324Y-39924093D01*
X206018188Y-39924093D01*
X206018790Y-39918596D01*
X206000423Y-39821400D01*
X205954439Y-39731792D01*
X205882407Y-39655658D01*
X205835984Y-39623818D01*
X205790904Y-39600114D01*
X205746741Y-39584953D01*
X205692725Y-39575888D01*
X205618088Y-39570470D01*
X205596944Y-39569485D01*
X205507590Y-39567628D01*
X205441301Y-39571853D01*
X205441301Y-39571853D01*
G37*
X205441301Y-39571853D02*
X205387659Y-39583159D01*
X205361493Y-39592098D01*
X205261877Y-39644933D01*
X205184328Y-39716279D01*
X205131332Y-39801222D01*
X205105374Y-39894850D01*
X205108943Y-39992249D01*
X205127764Y-40054044D01*
X205184136Y-40147178D01*
X205265064Y-40219110D01*
X205367757Y-40268609D01*
X205489422Y-40294448D01*
X205627266Y-40295395D01*
X205666668Y-40291254D01*
X205782790Y-40261647D01*
X205880760Y-40206028D01*
X205956666Y-40126736D01*
X205966380Y-40112201D01*
X206007966Y-40017492D01*
X206018188Y-39924093D01*
X205724324Y-39924093D01*
X205721374Y-39944556D01*
X205695701Y-40005839D01*
X205646492Y-40043320D01*
X205572956Y-40057560D01*
X205562115Y-40057733D01*
X205497488Y-40050576D01*
X205451744Y-40026498D01*
X205445458Y-40020915D01*
X205412898Y-39969520D01*
X205408982Y-39910327D01*
X205433852Y-39853828D01*
X205443085Y-39842925D01*
X205493650Y-39811510D01*
X205558469Y-39800831D01*
X205625186Y-39810672D01*
X205681446Y-39840820D01*
X205688328Y-39847189D01*
X205718109Y-39885281D01*
X205724324Y-39924093D01*
X206018188Y-39924093D01*
X206018790Y-39918596D01*
X206000423Y-39821400D01*
X205954439Y-39731792D01*
X205882407Y-39655658D01*
X205835984Y-39623818D01*
X205790904Y-39600114D01*
X205746741Y-39584953D01*
X205692725Y-39575888D01*
X205618088Y-39570470D01*
X205596944Y-39569485D01*
X205507590Y-39567628D01*
X205441301Y-39571853D01*
G36*
X205406266Y-39278800D02*
G01*
X205000511Y-39278800D01*
X204989656Y-39322052D01*
X204985333Y-39365018D01*
X204988030Y-39417815D01*
X204996168Y-39466192D01*
X205008170Y-39495901D01*
X205008999Y-39496798D01*
X205027896Y-39499508D01*
X205076574Y-39502262D01*
X205150950Y-39504948D01*
X205246938Y-39507451D01*
X205360455Y-39509660D01*
X205487414Y-39511460D01*
X205568523Y-39512299D01*
X206117466Y-39517198D01*
X206117466Y-39278800D01*
X205711066Y-39278800D01*
X205711066Y-39092533D01*
X205406266Y-39092533D01*
X205406266Y-39278800D01*
X205406266Y-39278800D01*
G37*
X205406266Y-39278800D02*
X205000511Y-39278800D01*
X204989656Y-39322052D01*
X204985333Y-39365018D01*
X204988030Y-39417815D01*
X204996168Y-39466192D01*
X205008170Y-39495901D01*
X205008999Y-39496798D01*
X205027896Y-39499508D01*
X205076574Y-39502262D01*
X205150950Y-39504948D01*
X205246938Y-39507451D01*
X205360455Y-39509660D01*
X205487414Y-39511460D01*
X205568523Y-39512299D01*
X206117466Y-39517198D01*
X206117466Y-39278800D01*
X205711066Y-39278800D01*
X205711066Y-39092533D01*
X205406266Y-39092533D01*
X205406266Y-39278800D01*
G36*
X205221420Y-37739697D02*
G01*
X205194957Y-37740594D01*
X205111917Y-37744623D01*
X205051602Y-37751122D01*
X205002873Y-37762600D01*
X204954590Y-37781569D01*
X204904318Y-37806098D01*
X204801887Y-37873532D01*
X204727307Y-37955415D01*
X204681704Y-38048036D01*
X204666205Y-38147687D01*
X204681936Y-38250656D01*
X204730023Y-38353234D01*
X204735609Y-38361773D01*
X204778143Y-38414624D01*
X204832084Y-38458205D01*
X204904941Y-38499686D01*
X204958717Y-38526004D01*
X205002810Y-38543332D01*
X205047242Y-38553750D01*
X205102035Y-38559334D01*
X205177210Y-38562162D01*
X205209741Y-38562876D01*
X205302348Y-38563480D01*
X205371459Y-38560140D01*
X205427325Y-38551717D01*
X205480200Y-38537072D01*
X205498492Y-38530766D01*
X205602999Y-38478335D01*
X205679119Y-38414893D01*
X205748398Y-38325176D01*
X205786784Y-38229172D01*
X205795568Y-38131141D01*
X205795375Y-38130190D01*
X205485682Y-38130190D01*
X205482665Y-38190018D01*
X205447210Y-38247324D01*
X205383123Y-38298054D01*
X205324814Y-38319713D01*
X205249085Y-38329835D01*
X205170513Y-38327987D01*
X205103673Y-38313732D01*
X205087885Y-38306867D01*
X205020361Y-38257965D01*
X204983252Y-38197696D01*
X204976160Y-38152733D01*
X204991555Y-38085568D01*
X205035210Y-38032004D01*
X205103330Y-37994717D01*
X205192120Y-37976380D01*
X205228466Y-37974933D01*
X205325822Y-37985513D01*
X205401487Y-38018739D01*
X205455571Y-38070012D01*
X205485682Y-38130190D01*
X205795375Y-38130190D01*
X205776042Y-38035339D01*
X205729496Y-37946024D01*
X205657220Y-37867453D01*
X205560507Y-37803885D01*
X205484284Y-37772338D01*
X205422699Y-37753944D01*
X205366293Y-37743243D01*
X205303166Y-37738929D01*
X205221420Y-37739697D01*
X205221420Y-37739697D01*
G37*
X205221420Y-37739697D02*
X205194957Y-37740594D01*
X205111917Y-37744623D01*
X205051602Y-37751122D01*
X205002873Y-37762600D01*
X204954590Y-37781569D01*
X204904318Y-37806098D01*
X204801887Y-37873532D01*
X204727307Y-37955415D01*
X204681704Y-38048036D01*
X204666205Y-38147687D01*
X204681936Y-38250656D01*
X204730023Y-38353234D01*
X204735609Y-38361773D01*
X204778143Y-38414624D01*
X204832084Y-38458205D01*
X204904941Y-38499686D01*
X204958717Y-38526004D01*
X205002810Y-38543332D01*
X205047242Y-38553750D01*
X205102035Y-38559334D01*
X205177210Y-38562162D01*
X205209741Y-38562876D01*
X205302348Y-38563480D01*
X205371459Y-38560140D01*
X205427325Y-38551717D01*
X205480200Y-38537072D01*
X205498492Y-38530766D01*
X205602999Y-38478335D01*
X205679119Y-38414893D01*
X205748398Y-38325176D01*
X205786784Y-38229172D01*
X205795568Y-38131141D01*
X205795375Y-38130190D01*
X205485682Y-38130190D01*
X205482665Y-38190018D01*
X205447210Y-38247324D01*
X205383123Y-38298054D01*
X205324814Y-38319713D01*
X205249085Y-38329835D01*
X205170513Y-38327987D01*
X205103673Y-38313732D01*
X205087885Y-38306867D01*
X205020361Y-38257965D01*
X204983252Y-38197696D01*
X204976160Y-38152733D01*
X204991555Y-38085568D01*
X205035210Y-38032004D01*
X205103330Y-37994717D01*
X205192120Y-37976380D01*
X205228466Y-37974933D01*
X205325822Y-37985513D01*
X205401487Y-38018739D01*
X205455571Y-38070012D01*
X205485682Y-38130190D01*
X205795375Y-38130190D01*
X205776042Y-38035339D01*
X205729496Y-37946024D01*
X205657220Y-37867453D01*
X205560507Y-37803885D01*
X205484284Y-37772338D01*
X205422699Y-37753944D01*
X205366293Y-37743243D01*
X205303166Y-37738929D01*
X205221420Y-37739697D01*
G36*
X205220000Y-37398647D02*
G01*
X204767033Y-37403157D01*
X204314066Y-37407666D01*
X204308985Y-37505130D01*
X204307266Y-37560665D01*
X204311690Y-37592067D01*
X204325554Y-37608948D01*
X204348187Y-37619430D01*
X204375590Y-37623323D01*
X204434932Y-37626774D01*
X204524292Y-37629747D01*
X204641743Y-37632207D01*
X204785364Y-37634118D01*
X204953229Y-37635446D01*
X205143415Y-37636154D01*
X205263435Y-37636266D01*
X206134399Y-37636266D01*
X206134399Y-37399200D01*
X205524800Y-37399200D01*
X205524800Y-37094400D01*
X205220000Y-37094400D01*
X205220000Y-37398647D01*
X205220000Y-37398647D01*
G37*
X205220000Y-37398647D02*
X204767033Y-37403157D01*
X204314066Y-37407666D01*
X204308985Y-37505130D01*
X204307266Y-37560665D01*
X204311690Y-37592067D01*
X204325554Y-37608948D01*
X204348187Y-37619430D01*
X204375590Y-37623323D01*
X204434932Y-37626774D01*
X204524292Y-37629747D01*
X204641743Y-37632207D01*
X204785364Y-37634118D01*
X204953229Y-37635446D01*
X205143415Y-37636154D01*
X205263435Y-37636266D01*
X206134399Y-37636266D01*
X206134399Y-37399200D01*
X205524800Y-37399200D01*
X205524800Y-37094400D01*
X205220000Y-37094400D01*
X205220000Y-37398647D01*
G36*
X205182605Y-36603625D02*
G01*
X205057963Y-36604596D01*
X204960350Y-36606390D01*
X204886350Y-36609148D01*
X204832544Y-36613014D01*
X204795517Y-36618130D01*
X204771851Y-36624639D01*
X204766192Y-36627221D01*
X204710441Y-36667000D01*
X204654974Y-36723229D01*
X204613934Y-36781459D01*
X204612469Y-36784253D01*
X204605568Y-36813508D01*
X204600136Y-36866606D01*
X204596256Y-36935969D01*
X204594011Y-37014018D01*
X204593484Y-37093173D01*
X204594757Y-37165856D01*
X204597915Y-37224489D01*
X204603041Y-37261491D01*
X204607139Y-37270185D01*
X204635966Y-37278416D01*
X204685406Y-37285020D01*
X204742213Y-37289013D01*
X204793139Y-37289412D01*
X204822066Y-37286147D01*
X204853614Y-37275225D01*
X204875035Y-37258530D01*
X204888269Y-37230057D01*
X204895253Y-37183801D01*
X204897924Y-37113754D01*
X204898266Y-37049993D01*
X204898266Y-36857333D01*
X205863466Y-36857333D01*
X205863466Y-36603333D01*
X205337692Y-36603333D01*
X205182605Y-36603625D01*
X205182605Y-36603625D01*
G37*
X205182605Y-36603625D02*
X205057963Y-36604596D01*
X204960350Y-36606390D01*
X204886350Y-36609148D01*
X204832544Y-36613014D01*
X204795517Y-36618130D01*
X204771851Y-36624639D01*
X204766192Y-36627221D01*
X204710441Y-36667000D01*
X204654974Y-36723229D01*
X204613934Y-36781459D01*
X204612469Y-36784253D01*
X204605568Y-36813508D01*
X204600136Y-36866606D01*
X204596256Y-36935969D01*
X204594011Y-37014018D01*
X204593484Y-37093173D01*
X204594757Y-37165856D01*
X204597915Y-37224489D01*
X204603041Y-37261491D01*
X204607139Y-37270185D01*
X204635966Y-37278416D01*
X204685406Y-37285020D01*
X204742213Y-37289013D01*
X204793139Y-37289412D01*
X204822066Y-37286147D01*
X204853614Y-37275225D01*
X204875035Y-37258530D01*
X204888269Y-37230057D01*
X204895253Y-37183801D01*
X204897924Y-37113754D01*
X204898266Y-37049993D01*
X204898266Y-36857333D01*
X205863466Y-36857333D01*
X205863466Y-36603333D01*
X205337692Y-36603333D01*
X205182605Y-36603625D01*
G36*
X204411284Y-34965033D02*
G01*
X204415666Y-35866733D01*
X204543427Y-35871616D01*
X204606345Y-35872484D01*
X204655529Y-35870301D01*
X204681692Y-35865538D01*
X204683127Y-35864561D01*
X204685406Y-35845821D01*
X204687542Y-35796389D01*
X204689494Y-35719439D01*
X204691220Y-35618148D01*
X204692677Y-35495688D01*
X204693825Y-35355235D01*
X204694621Y-35199964D01*
X204695024Y-35033048D01*
X204695066Y-34957978D01*
X204695066Y-34063333D01*
X204406903Y-34063333D01*
X204411284Y-34965033D01*
X204411284Y-34965033D01*
G37*
X204411284Y-34965033D02*
X204415666Y-35866733D01*
X204543427Y-35871616D01*
X204606345Y-35872484D01*
X204655529Y-35870301D01*
X204681692Y-35865538D01*
X204683127Y-35864561D01*
X204685406Y-35845821D01*
X204687542Y-35796389D01*
X204689494Y-35719439D01*
X204691220Y-35618148D01*
X204692677Y-35495688D01*
X204693825Y-35355235D01*
X204694621Y-35199964D01*
X204695024Y-35033048D01*
X204695066Y-34957978D01*
X204695066Y-34063333D01*
X204406903Y-34063333D01*
X204411284Y-34965033D01*
G36*
X204813600Y-34942657D02*
G01*
X204813693Y-35137854D01*
X204814030Y-35301938D01*
X204814693Y-35437662D01*
X204815763Y-35547781D01*
X204817323Y-35635047D01*
X204819456Y-35702214D01*
X204822244Y-35752035D01*
X204825769Y-35787264D01*
X204830114Y-35810654D01*
X204835362Y-35824960D01*
X204840209Y-35831657D01*
X204872494Y-35846711D01*
X204925454Y-35855850D01*
X204986993Y-35858776D01*
X205045012Y-35855197D01*
X205087416Y-35844815D01*
X205098080Y-35837947D01*
X205105086Y-35819695D01*
X205110485Y-35778992D01*
X205114391Y-35713368D01*
X205116922Y-35620353D01*
X205118193Y-35497475D01*
X205118400Y-35406147D01*
X205118400Y-34994667D01*
X205372400Y-34994667D01*
X205372400Y-34723733D01*
X205118400Y-34723733D01*
X205118400Y-34080267D01*
X204813600Y-34080267D01*
X204813600Y-34942657D01*
X204813600Y-34942657D01*
G37*
X204813600Y-34942657D02*
X204813693Y-35137854D01*
X204814030Y-35301938D01*
X204814693Y-35437662D01*
X204815763Y-35547781D01*
X204817323Y-35635047D01*
X204819456Y-35702214D01*
X204822244Y-35752035D01*
X204825769Y-35787264D01*
X204830114Y-35810654D01*
X204835362Y-35824960D01*
X204840209Y-35831657D01*
X204872494Y-35846711D01*
X204925454Y-35855850D01*
X204986993Y-35858776D01*
X205045012Y-35855197D01*
X205087416Y-35844815D01*
X205098080Y-35837947D01*
X205105086Y-35819695D01*
X205110485Y-35778992D01*
X205114391Y-35713368D01*
X205116922Y-35620353D01*
X205118193Y-35497475D01*
X205118400Y-35406147D01*
X205118400Y-34994667D01*
X205372400Y-34994667D01*
X205372400Y-34723733D01*
X205118400Y-34723733D01*
X205118400Y-34080267D01*
X204813600Y-34080267D01*
X204813600Y-34942657D01*
G36*
X205541733Y-34332996D02*
G01*
X205385100Y-34337864D01*
X205228466Y-34342733D01*
X205223326Y-34452364D01*
X205222850Y-34518212D01*
X205232398Y-34561932D01*
X205257411Y-34587992D01*
X205303329Y-34600856D01*
X205375589Y-34604989D01*
X205409503Y-34605200D01*
X205471578Y-34606776D01*
X205518020Y-34610956D01*
X205540718Y-34616920D01*
X205541733Y-34618575D01*
X205536074Y-34654977D01*
X205521408Y-34711680D01*
X205501206Y-34777501D01*
X205478937Y-34841255D01*
X205458069Y-34891758D01*
X205455115Y-34897816D01*
X205429438Y-34942228D01*
X205389502Y-35003829D01*
X205341701Y-35072970D01*
X205311101Y-35115146D01*
X205266507Y-35178321D01*
X205230868Y-35234440D01*
X205208513Y-35276338D01*
X205203066Y-35294012D01*
X205216393Y-35330557D01*
X205250203Y-35371144D01*
X205295237Y-35408520D01*
X205342236Y-35435429D01*
X205381943Y-35444615D01*
X205392339Y-35442329D01*
X205418848Y-35421191D01*
X205457936Y-35377755D01*
X205504522Y-35318617D01*
X205553522Y-35250374D01*
X205599853Y-35179624D01*
X205618272Y-35149079D01*
X205681425Y-35041026D01*
X205731090Y-35133584D01*
X205772217Y-35203610D01*
X205820569Y-35275772D01*
X205871357Y-35344016D01*
X205919793Y-35402286D01*
X205961089Y-35444527D01*
X205990455Y-35464684D01*
X205993507Y-35465424D01*
X206026055Y-35458412D01*
X206072025Y-35434703D01*
X206102325Y-35413868D01*
X206145034Y-35375741D01*
X206174381Y-35339001D01*
X206182008Y-35320917D01*
X206173197Y-35283878D01*
X206140375Y-35229309D01*
X206111389Y-35191435D01*
X206032585Y-35085084D01*
X205963662Y-34973453D01*
X205907836Y-34863187D01*
X205868323Y-34760927D01*
X205848339Y-34673315D01*
X205846533Y-34644460D01*
X205848125Y-34625866D01*
X205857242Y-34614320D01*
X205880391Y-34608145D01*
X205924081Y-34605664D01*
X205994822Y-34605200D01*
X206151333Y-34605200D01*
X206151333Y-34334267D01*
X205846533Y-34334267D01*
X205846533Y-34063333D01*
X205541733Y-34063333D01*
X205541733Y-34332996D01*
X205541733Y-34332996D01*
G37*
X205541733Y-34332996D02*
X205385100Y-34337864D01*
X205228466Y-34342733D01*
X205223326Y-34452364D01*
X205222850Y-34518212D01*
X205232398Y-34561932D01*
X205257411Y-34587992D01*
X205303329Y-34600856D01*
X205375589Y-34604989D01*
X205409503Y-34605200D01*
X205471578Y-34606776D01*
X205518020Y-34610956D01*
X205540718Y-34616920D01*
X205541733Y-34618575D01*
X205536074Y-34654977D01*
X205521408Y-34711680D01*
X205501206Y-34777501D01*
X205478937Y-34841255D01*
X205458069Y-34891758D01*
X205455115Y-34897816D01*
X205429438Y-34942228D01*
X205389502Y-35003829D01*
X205341701Y-35072970D01*
X205311101Y-35115146D01*
X205266507Y-35178321D01*
X205230868Y-35234440D01*
X205208513Y-35276338D01*
X205203066Y-35294012D01*
X205216393Y-35330557D01*
X205250203Y-35371144D01*
X205295237Y-35408520D01*
X205342236Y-35435429D01*
X205381943Y-35444615D01*
X205392339Y-35442329D01*
X205418848Y-35421191D01*
X205457936Y-35377755D01*
X205504522Y-35318617D01*
X205553522Y-35250374D01*
X205599853Y-35179624D01*
X205618272Y-35149079D01*
X205681425Y-35041026D01*
X205731090Y-35133584D01*
X205772217Y-35203610D01*
X205820569Y-35275772D01*
X205871357Y-35344016D01*
X205919793Y-35402286D01*
X205961089Y-35444527D01*
X205990455Y-35464684D01*
X205993507Y-35465424D01*
X206026055Y-35458412D01*
X206072025Y-35434703D01*
X206102325Y-35413868D01*
X206145034Y-35375741D01*
X206174381Y-35339001D01*
X206182008Y-35320917D01*
X206173197Y-35283878D01*
X206140375Y-35229309D01*
X206111389Y-35191435D01*
X206032585Y-35085084D01*
X205963662Y-34973453D01*
X205907836Y-34863187D01*
X205868323Y-34760927D01*
X205848339Y-34673315D01*
X205846533Y-34644460D01*
X205848125Y-34625866D01*
X205857242Y-34614320D01*
X205880391Y-34608145D01*
X205924081Y-34605664D01*
X205994822Y-34605200D01*
X206151333Y-34605200D01*
X206151333Y-34334267D01*
X205846533Y-34334267D01*
X205846533Y-34063333D01*
X205541733Y-34063333D01*
X205541733Y-34332996D01*
G36*
X205406266Y-32954200D02*
G01*
X205405971Y-33038119D01*
X205405161Y-33108689D01*
X205403952Y-33159622D01*
X205402457Y-33184628D01*
X205402033Y-33186109D01*
X205384691Y-33187276D01*
X205337783Y-33188939D01*
X205265605Y-33190987D01*
X205172452Y-33193306D01*
X205062619Y-33195786D01*
X204940401Y-33198315D01*
X204915200Y-33198809D01*
X204432600Y-33208200D01*
X204427592Y-33322500D01*
X204422585Y-33436800D01*
X204960992Y-33436285D01*
X205140668Y-33435497D01*
X205286609Y-33433509D01*
X205398928Y-33430315D01*
X205477736Y-33425912D01*
X205523144Y-33420297D01*
X205533266Y-33417085D01*
X205589738Y-33376631D01*
X205644937Y-33322392D01*
X205684933Y-33268219D01*
X205687178Y-33264074D01*
X205697793Y-33231740D01*
X205705071Y-33179351D01*
X205709363Y-33102616D01*
X205711020Y-32997247D01*
X205711066Y-32971974D01*
X205711066Y-32725600D01*
X205406266Y-32725600D01*
X205406266Y-32954200D01*
X205406266Y-32954200D01*
G37*
X205406266Y-32954200D02*
X205405971Y-33038119D01*
X205405161Y-33108689D01*
X205403952Y-33159622D01*
X205402457Y-33184628D01*
X205402033Y-33186109D01*
X205384691Y-33187276D01*
X205337783Y-33188939D01*
X205265605Y-33190987D01*
X205172452Y-33193306D01*
X205062619Y-33195786D01*
X204940401Y-33198315D01*
X204915200Y-33198809D01*
X204432600Y-33208200D01*
X204427592Y-33322500D01*
X204422585Y-33436800D01*
X204960992Y-33436285D01*
X205140668Y-33435497D01*
X205286609Y-33433509D01*
X205398928Y-33430315D01*
X205477736Y-33425912D01*
X205523144Y-33420297D01*
X205533266Y-33417085D01*
X205589738Y-33376631D01*
X205644937Y-33322392D01*
X205684933Y-33268219D01*
X205687178Y-33264074D01*
X205697793Y-33231740D01*
X205705071Y-33179351D01*
X205709363Y-33102616D01*
X205711020Y-32997247D01*
X205711066Y-32971974D01*
X205711066Y-32725600D01*
X205406266Y-32725600D01*
X205406266Y-32954200D01*
G36*
X204458000Y-32163413D02*
G01*
X204458291Y-32343103D01*
X204459212Y-32491178D01*
X204460828Y-32609888D01*
X204463208Y-32701478D01*
X204466418Y-32768198D01*
X204470527Y-32812295D01*
X204475602Y-32836017D01*
X204478319Y-32840747D01*
X204506090Y-32851831D01*
X204557863Y-32859064D01*
X204610400Y-32861066D01*
X204674398Y-32858033D01*
X204722279Y-32849935D01*
X204742480Y-32840747D01*
X204748028Y-32825763D01*
X204752579Y-32791454D01*
X204756201Y-32735570D01*
X204758960Y-32655865D01*
X204760924Y-32550090D01*
X204762161Y-32415997D01*
X204762737Y-32251339D01*
X204762800Y-32163413D01*
X204762800Y-31506400D01*
X204458000Y-31506400D01*
X204458000Y-32163413D01*
X204458000Y-32163413D01*
G37*
X204458000Y-32163413D02*
X204458291Y-32343103D01*
X204459212Y-32491178D01*
X204460828Y-32609888D01*
X204463208Y-32701478D01*
X204466418Y-32768198D01*
X204470527Y-32812295D01*
X204475602Y-32836017D01*
X204478319Y-32840747D01*
X204506090Y-32851831D01*
X204557863Y-32859064D01*
X204610400Y-32861066D01*
X204674398Y-32858033D01*
X204722279Y-32849935D01*
X204742480Y-32840747D01*
X204748028Y-32825763D01*
X204752579Y-32791454D01*
X204756201Y-32735570D01*
X204758960Y-32655865D01*
X204760924Y-32550090D01*
X204762161Y-32415997D01*
X204762737Y-32251339D01*
X204762800Y-32163413D01*
X204762800Y-31506400D01*
X204458000Y-31506400D01*
X204458000Y-32163413D01*
G36*
X205466362Y-31559167D02*
G01*
X205423603Y-31566900D01*
X205380404Y-31582870D01*
X205330208Y-31606666D01*
X205217556Y-31677427D01*
X205134408Y-31764603D01*
X205080367Y-31868892D01*
X205055034Y-31990996D01*
X205054388Y-32090995D01*
X205064145Y-32176335D01*
X205083122Y-32242472D01*
X205106943Y-32290225D01*
X205185278Y-32392091D01*
X205284621Y-32468778D01*
X205401917Y-32518935D01*
X205534111Y-32541212D01*
X205663812Y-32536242D01*
X205792255Y-32504981D01*
X205900280Y-32446732D01*
X205988363Y-32361159D01*
X206048750Y-32265017D01*
X206090428Y-32146416D01*
X206100564Y-32026013D01*
X206098501Y-32013757D01*
X205803913Y-32013757D01*
X205801463Y-32096152D01*
X205768977Y-32174782D01*
X205718734Y-32232963D01*
X205669506Y-32268679D01*
X205619886Y-32283462D01*
X205582636Y-32285333D01*
X205522229Y-32279239D01*
X205466610Y-32264080D01*
X205454895Y-32258810D01*
X205411782Y-32221843D01*
X205373329Y-32164145D01*
X205346758Y-32098752D01*
X205338905Y-32049379D01*
X205350387Y-31990307D01*
X205380486Y-31925485D01*
X205421285Y-31869148D01*
X205455086Y-31840463D01*
X205504441Y-31821773D01*
X205565689Y-31811763D01*
X205581856Y-31811200D01*
X205640922Y-31816926D01*
X205687892Y-31839003D01*
X205718707Y-31863547D01*
X205776328Y-31934066D01*
X205803913Y-32013757D01*
X206098501Y-32013757D01*
X206080816Y-31908696D01*
X206032841Y-31799353D01*
X205958298Y-31702871D01*
X205858844Y-31624139D01*
X205824916Y-31604980D01*
X205773736Y-31583983D01*
X205711258Y-31570351D01*
X205627765Y-31562195D01*
X205596198Y-31560487D01*
X205520090Y-31557690D01*
X205466362Y-31559167D01*
X205466362Y-31559167D01*
G37*
X205466362Y-31559167D02*
X205423603Y-31566900D01*
X205380404Y-31582870D01*
X205330208Y-31606666D01*
X205217556Y-31677427D01*
X205134408Y-31764603D01*
X205080367Y-31868892D01*
X205055034Y-31990996D01*
X205054388Y-32090995D01*
X205064145Y-32176335D01*
X205083122Y-32242472D01*
X205106943Y-32290225D01*
X205185278Y-32392091D01*
X205284621Y-32468778D01*
X205401917Y-32518935D01*
X205534111Y-32541212D01*
X205663812Y-32536242D01*
X205792255Y-32504981D01*
X205900280Y-32446732D01*
X205988363Y-32361159D01*
X206048750Y-32265017D01*
X206090428Y-32146416D01*
X206100564Y-32026013D01*
X206098501Y-32013757D01*
X205803913Y-32013757D01*
X205801463Y-32096152D01*
X205768977Y-32174782D01*
X205718734Y-32232963D01*
X205669506Y-32268679D01*
X205619886Y-32283462D01*
X205582636Y-32285333D01*
X205522229Y-32279239D01*
X205466610Y-32264080D01*
X205454895Y-32258810D01*
X205411782Y-32221843D01*
X205373329Y-32164145D01*
X205346758Y-32098752D01*
X205338905Y-32049379D01*
X205350387Y-31990307D01*
X205380486Y-31925485D01*
X205421285Y-31869148D01*
X205455086Y-31840463D01*
X205504441Y-31821773D01*
X205565689Y-31811763D01*
X205581856Y-31811200D01*
X205640922Y-31816926D01*
X205687892Y-31839003D01*
X205718707Y-31863547D01*
X205776328Y-31934066D01*
X205803913Y-32013757D01*
X206098501Y-32013757D01*
X206080816Y-31908696D01*
X206032841Y-31799353D01*
X205958298Y-31702871D01*
X205858844Y-31624139D01*
X205824916Y-31604980D01*
X205773736Y-31583983D01*
X205711258Y-31570351D01*
X205627765Y-31562195D01*
X205596198Y-31560487D01*
X205520090Y-31557690D01*
X205466362Y-31559167D01*
M02*
