G04 #@! TF.GenerationSoftware,KiCad,Pcbnew,(5.1.2)-1*
G04 #@! TF.CreationDate,2019-05-03T22:44:58-04:00*
G04 #@! TF.ProjectId,Ergonomic_Ortholinear_Keyboard,4572676f-6e6f-46d6-9963-5f4f7274686f,rev?*
G04 #@! TF.SameCoordinates,Original*
G04 #@! TF.FileFunction,Copper,L1,Top*
G04 #@! TF.FilePolarity,Positive*
%FSLAX46Y46*%
G04 Gerber Fmt 4.6, Leading zero omitted, Abs format (unit mm)*
G04 Created by KiCad (PCBNEW (5.1.2)-1) date 2019-05-03 22:44:58*
%MOMM*%
%LPD*%
G04 APERTURE LIST*
%ADD10R,1.600000X1.600000*%
%ADD11O,1.600000X1.600000*%
%ADD12O,1.727200X1.727200*%
%ADD13R,1.727200X1.727200*%
%ADD14C,1.998980*%
%ADD15R,1.998980X1.998980*%
%ADD16C,1.600000*%
%ADD17C,1.200000*%
%ADD18R,1.200000X1.200000*%
%ADD19C,1.270000*%
%ADD20O,1.100000X2.400000*%
%ADD21C,1.100000*%
%ADD22R,1.100000X1.100000*%
%ADD23C,1.800000*%
%ADD24R,1.800000X1.800000*%
%ADD25C,2.200000*%
%ADD26C,2.000000*%
%ADD27C,1.500000*%
%ADD28C,0.800000*%
%ADD29C,0.350000*%
%ADD30C,0.450000*%
%ADD31C,0.250000*%
G04 APERTURE END LIST*
D10*
X152940000Y-45581000D03*
D11*
X145320000Y-45581000D03*
X145320000Y-59551000D03*
D10*
X152940000Y-59551000D03*
D11*
X145320000Y-54471000D03*
D10*
X152940000Y-54471000D03*
D11*
X145320000Y-51931000D03*
D10*
X152940000Y-51931000D03*
D11*
X145320000Y-76061000D03*
D10*
X152940000Y-76061000D03*
D11*
X145320000Y-70981000D03*
D10*
X152940000Y-70981000D03*
D11*
X145320000Y-94897000D03*
D10*
X152940000Y-94897000D03*
D11*
X145320000Y-89817000D03*
D10*
X152940000Y-89817000D03*
X194006000Y-75880000D03*
D11*
X201626000Y-75880000D03*
D10*
X194006000Y-70800000D03*
D11*
X201626000Y-70800000D03*
D10*
X194006000Y-59370000D03*
D11*
X201626000Y-59370000D03*
X201626000Y-32700000D03*
D10*
X194006000Y-32700000D03*
D11*
X175410444Y-63459000D03*
X167790444Y-96479000D03*
X175410444Y-65999000D03*
X167790444Y-93939000D03*
X175410444Y-68539000D03*
X167790444Y-91399000D03*
X175410444Y-71079000D03*
X167790444Y-88859000D03*
X175410444Y-73619000D03*
X167790444Y-86319000D03*
X175410444Y-76159000D03*
X167790444Y-83779000D03*
X175410444Y-78699000D03*
X167790444Y-81239000D03*
X175410444Y-81239000D03*
X167790444Y-78699000D03*
X175410444Y-83779000D03*
X167790444Y-76159000D03*
X175410444Y-86319000D03*
X167790444Y-73619000D03*
X175410444Y-88859000D03*
X167790444Y-71079000D03*
X175410444Y-91399000D03*
X167790444Y-68539000D03*
X175410444Y-93939000D03*
X167790444Y-65999000D03*
X175410444Y-96479000D03*
D10*
X167790444Y-63459000D03*
D11*
X201626000Y-102550000D03*
D10*
X194006000Y-102550000D03*
X194006000Y-51750000D03*
D11*
X201626000Y-51750000D03*
X145320000Y-64631000D03*
D10*
X152940000Y-64631000D03*
D11*
X145320000Y-57011000D03*
D10*
X152940000Y-57011000D03*
D11*
X145320000Y-81141000D03*
D10*
X152940000Y-81141000D03*
D11*
X145320000Y-73521000D03*
D10*
X152940000Y-73521000D03*
D11*
X145320000Y-43041000D03*
D10*
X152940000Y-43041000D03*
D11*
X145320000Y-40501000D03*
D10*
X152940000Y-40501000D03*
D11*
X145320000Y-37961000D03*
D10*
X152940000Y-37961000D03*
D11*
X145320000Y-35421000D03*
D10*
X152940000Y-35421000D03*
D11*
X145320000Y-32881000D03*
D10*
X152940000Y-32881000D03*
D11*
X201626000Y-35240000D03*
D10*
X194006000Y-35240000D03*
X194006000Y-37780000D03*
D11*
X201626000Y-37780000D03*
D10*
X194006000Y-40320000D03*
D11*
X201626000Y-40320000D03*
D10*
X194006000Y-42860000D03*
D11*
X201626000Y-42860000D03*
X201626000Y-45400000D03*
D10*
X194006000Y-45400000D03*
D11*
X145320000Y-62091000D03*
D10*
X152940000Y-62091000D03*
X194006000Y-54290000D03*
D11*
X201626000Y-54290000D03*
D10*
X194006000Y-56830000D03*
D11*
X201626000Y-56830000D03*
D10*
X194006000Y-61910000D03*
D11*
X201626000Y-61910000D03*
D10*
X194006000Y-64450000D03*
D11*
X201626000Y-64450000D03*
X145320000Y-83681000D03*
D10*
X152940000Y-83681000D03*
D11*
X145320000Y-78601000D03*
D10*
X152940000Y-78601000D03*
X194006000Y-73340000D03*
D11*
X201626000Y-73340000D03*
D10*
X194006000Y-78420000D03*
D11*
X201626000Y-78420000D03*
D10*
X194006000Y-80960000D03*
D11*
X201626000Y-80960000D03*
D10*
X194006000Y-83500000D03*
D11*
X201626000Y-83500000D03*
X145320000Y-102477000D03*
D10*
X152940000Y-102477000D03*
D11*
X145320000Y-99937000D03*
D10*
X152940000Y-99937000D03*
D11*
X145320000Y-97397000D03*
D10*
X152940000Y-97397000D03*
D11*
X145320000Y-92357000D03*
D10*
X152940000Y-92357000D03*
X194006000Y-89850000D03*
D11*
X201626000Y-89850000D03*
D10*
X194006000Y-92390000D03*
D11*
X201626000Y-92390000D03*
D10*
X194006000Y-94930000D03*
D11*
X201626000Y-94930000D03*
X201626000Y-97470000D03*
D10*
X194006000Y-97470000D03*
X194006000Y-100010000D03*
D11*
X201626000Y-100010000D03*
X186312000Y-44275000D03*
D10*
X186312000Y-36655000D03*
D11*
X182217000Y-44275000D03*
D10*
X182217000Y-36655000D03*
D12*
X161130000Y-63200000D03*
X163670000Y-63200000D03*
X161130000Y-65740000D03*
X163670000Y-65740000D03*
X161130000Y-68280000D03*
D13*
X163670000Y-68280000D03*
D14*
X170212000Y-59130000D03*
X167037000Y-59130000D03*
X163862000Y-59130000D03*
D15*
X160687000Y-59130000D03*
D16*
X163712000Y-94435000D03*
X163712000Y-96935000D03*
X160890000Y-94435000D03*
X160890000Y-96935000D03*
D17*
X177999401Y-47280000D03*
D18*
X176499401Y-47280000D03*
D16*
X163847000Y-79585000D03*
X163847000Y-74585000D03*
X160737000Y-79585000D03*
X160737000Y-74585000D03*
D19*
X176422000Y-42630000D03*
X178022000Y-37530000D03*
D20*
X167237000Y-30005000D03*
X159937000Y-30005000D03*
D21*
X165187000Y-30880000D03*
X164387000Y-29130000D03*
X163587000Y-30880000D03*
X162787000Y-29130000D03*
D22*
X161987000Y-30880000D03*
D23*
X162877000Y-54055000D03*
D24*
X160337000Y-54055000D03*
D23*
X168237000Y-54055000D03*
D24*
X165697000Y-54055000D03*
D11*
X161037000Y-36750000D03*
D16*
X161037000Y-49450000D03*
D11*
X171627000Y-36750000D03*
D16*
X171627000Y-49450000D03*
D11*
X166332000Y-49450000D03*
D16*
X166332000Y-36750000D03*
D11*
X180660000Y-63040000D03*
D16*
X180660000Y-75740000D03*
D11*
X185712000Y-63040000D03*
D16*
X185712000Y-75740000D03*
D11*
X180660000Y-84259000D03*
D16*
X180660000Y-96959000D03*
D11*
X173812000Y-58075834D03*
D16*
X186512000Y-58075834D03*
D11*
X173812000Y-53655000D03*
D16*
X186512000Y-53655000D03*
D25*
X36919000Y-32180000D03*
X30569000Y-34720000D03*
X55969000Y-32180000D03*
X49619000Y-34720000D03*
X75019000Y-32180000D03*
X68669000Y-34720000D03*
X94069000Y-32180000D03*
X87719000Y-34720000D03*
X113119000Y-32180000D03*
X106769000Y-34720000D03*
X132169000Y-32180000D03*
X125819000Y-34720000D03*
X213514000Y-34720000D03*
X219864000Y-32180000D03*
X232564000Y-34720000D03*
X238914000Y-32180000D03*
X251614000Y-34720000D03*
X257964000Y-32180000D03*
X270664000Y-34720000D03*
X277014000Y-32180000D03*
X289714000Y-34720000D03*
X296064000Y-32180000D03*
X308764000Y-34720000D03*
X315114000Y-32180000D03*
X36919000Y-51230000D03*
X30569000Y-53770000D03*
X55969000Y-51230000D03*
X49619000Y-53770000D03*
X75019000Y-51230000D03*
X68669000Y-53770000D03*
X94069000Y-51230000D03*
X87719000Y-53770000D03*
X113119000Y-51230000D03*
X106769000Y-53770000D03*
X132169000Y-51230000D03*
X125819000Y-53770000D03*
X213514000Y-53770000D03*
X219864000Y-51230000D03*
X232564000Y-53770000D03*
X238914000Y-51230000D03*
X251614000Y-53770000D03*
X257964000Y-51230000D03*
X270664000Y-53770000D03*
X277014000Y-51230000D03*
X289714000Y-53770000D03*
X296064000Y-51230000D03*
X308764000Y-53770000D03*
X315114000Y-51230000D03*
X36919000Y-70280000D03*
X30569000Y-72820000D03*
X55969000Y-70280000D03*
X49619000Y-72820000D03*
X75019000Y-70280000D03*
X68669000Y-72820000D03*
X94069000Y-70280000D03*
X87719000Y-72820000D03*
X113119000Y-70280000D03*
X106769000Y-72820000D03*
X132169000Y-70280000D03*
X125819000Y-72820000D03*
X213514000Y-72820000D03*
X219864000Y-70280000D03*
X232564000Y-72820000D03*
X238914000Y-70280000D03*
X251614000Y-72820000D03*
X257964000Y-70280000D03*
X270664000Y-72820000D03*
X277014000Y-70280000D03*
X289714000Y-72820000D03*
X296064000Y-70280000D03*
X308764000Y-72820000D03*
X315114000Y-70280000D03*
X36919000Y-89330000D03*
X30569000Y-91870000D03*
X55969000Y-89330000D03*
X49619000Y-91870000D03*
X75019000Y-89330000D03*
X68669000Y-91870000D03*
X94069000Y-89330000D03*
X87719000Y-91870000D03*
X113119000Y-89330000D03*
X106769000Y-91870000D03*
X132169000Y-89330000D03*
X125819000Y-91870000D03*
X213514000Y-91870000D03*
X219864000Y-89330000D03*
X232564000Y-91870000D03*
X238914000Y-89330000D03*
X251614000Y-91870000D03*
X257964000Y-89330000D03*
X270664000Y-91870000D03*
X277014000Y-89330000D03*
X289714000Y-91870000D03*
X296064000Y-89330000D03*
X308764000Y-91870000D03*
X315114000Y-89330000D03*
D26*
X186062000Y-29180000D03*
X186062000Y-33680000D03*
X179562000Y-29180000D03*
X179562000Y-33680000D03*
X176262000Y-29180000D03*
X176262000Y-33680000D03*
X169762000Y-29180000D03*
X169762000Y-33680000D03*
D27*
X162297000Y-84600000D03*
X162297000Y-89480000D03*
D28*
X171610000Y-99320000D03*
X171610000Y-100490000D03*
X171610000Y-101660000D03*
X171610000Y-102830000D03*
X182515000Y-53705000D03*
X182515000Y-58080000D03*
X188890000Y-75730000D03*
D29*
X167389000Y-81239000D02*
X167790444Y-81239000D01*
D30*
X167390444Y-81239000D02*
X167790444Y-81239000D01*
X171176213Y-33680000D02*
X176262000Y-33680000D01*
X169762000Y-33680000D02*
X171176213Y-33680000D01*
X176262000Y-33680000D02*
X179562000Y-33680000D01*
X180976213Y-33680000D02*
X186062000Y-33680000D01*
X179562000Y-33680000D02*
X180976213Y-33680000D01*
X186312000Y-44275000D02*
X182217000Y-44275000D01*
X181004401Y-44275000D02*
X182217000Y-44275000D01*
X177999401Y-47280000D02*
X181004401Y-44275000D01*
X168347787Y-33680000D02*
X169762000Y-33680000D01*
X167209183Y-33680000D02*
X168347787Y-33680000D01*
X165187000Y-31657817D02*
X167209183Y-33680000D01*
X165187000Y-30880000D02*
X165187000Y-31657817D01*
X170212000Y-57302000D02*
X170212000Y-59130000D01*
X169810000Y-56900000D02*
X170212000Y-57302000D01*
X161832000Y-56900000D02*
X169810000Y-56900000D01*
X160337000Y-54055000D02*
X160337000Y-55405000D01*
X160337000Y-55405000D02*
X161832000Y-56900000D01*
X159908686Y-63200000D02*
X159165000Y-63943686D01*
X161130000Y-63200000D02*
X159908686Y-63200000D01*
X159165000Y-63943686D02*
X159165000Y-78013000D01*
X160890000Y-96935000D02*
X163712000Y-96935000D01*
X159495000Y-96935000D02*
X160890000Y-96935000D01*
X159165000Y-96605000D02*
X159495000Y-96935000D01*
X159600630Y-79580000D02*
X159165000Y-79580000D01*
X159605630Y-79585000D02*
X159600630Y-79580000D01*
X160737000Y-79585000D02*
X159605630Y-79585000D01*
X159165000Y-78013000D02*
X159165000Y-79580000D01*
X159165000Y-79580000D02*
X159165000Y-96605000D01*
X160737000Y-79585000D02*
X163847000Y-79585000D01*
X160337000Y-52705000D02*
X160337000Y-54055000D01*
X160662001Y-52379999D02*
X160337000Y-52705000D01*
X177999401Y-47280000D02*
X177999401Y-48128528D01*
X177999401Y-48128528D02*
X173747930Y-52379999D01*
X173747930Y-52379999D02*
X165700001Y-52379999D01*
X165700001Y-52379999D02*
X160662001Y-52379999D01*
X165697000Y-52383000D02*
X165697000Y-54055000D01*
X165700001Y-52379999D02*
X165697000Y-52383000D01*
X167390444Y-86319000D02*
X167790444Y-86319000D01*
X164229444Y-89480000D02*
X167390444Y-86319000D01*
X162297000Y-89480000D02*
X164229444Y-89480000D01*
X163712000Y-92377000D02*
X163712000Y-94435000D01*
X162297000Y-89480000D02*
X162297000Y-90962000D01*
X162297000Y-90962000D02*
X163712000Y-92377000D01*
X166969444Y-84600000D02*
X167790444Y-83779000D01*
X162297000Y-84600000D02*
X166969444Y-84600000D01*
X160890000Y-86007000D02*
X160890000Y-94435000D01*
X162297000Y-84600000D02*
X160890000Y-86007000D01*
X167790444Y-78528444D02*
X167790444Y-78699000D01*
X160737000Y-74585000D02*
X163847000Y-74585000D01*
X161130000Y-74192000D02*
X160737000Y-74585000D01*
X176422000Y-47202599D02*
X176499401Y-47280000D01*
X176422000Y-42630000D02*
X176422000Y-47202599D01*
X163207000Y-47280000D02*
X161037000Y-49450000D01*
X176499401Y-47280000D02*
X163207000Y-47280000D01*
X181791370Y-75740000D02*
X185712000Y-75740000D01*
X180660000Y-75740000D02*
X181791370Y-75740000D01*
X180660000Y-75740000D02*
X178720000Y-75740000D01*
X178720000Y-75740000D02*
X177760000Y-76700000D01*
X177760000Y-83079444D02*
X177760000Y-82230000D01*
X177760000Y-76700000D02*
X177760000Y-82230000D01*
X161130000Y-69501314D02*
X160715000Y-69916314D01*
X161130000Y-68280000D02*
X161130000Y-69501314D01*
X160737000Y-69938314D02*
X160737000Y-74585000D01*
X160715000Y-69916314D02*
X160737000Y-69938314D01*
X169440444Y-78699000D02*
X169446444Y-78705000D01*
X167790444Y-78699000D02*
X169440444Y-78699000D01*
X169446444Y-78705000D02*
X172090000Y-78705000D01*
X172090000Y-78705000D02*
X172990000Y-79605000D01*
X172990000Y-79605000D02*
X172990000Y-83280000D01*
X173489000Y-83779000D02*
X175410444Y-83779000D01*
X172990000Y-83280000D02*
X173489000Y-83779000D01*
X177066444Y-83785000D02*
X177760000Y-83785000D01*
X177060444Y-83779000D02*
X177066444Y-83785000D01*
X175410444Y-83779000D02*
X177060444Y-83779000D01*
X177760000Y-82230000D02*
X177760000Y-83785000D01*
X178339000Y-96959000D02*
X180660000Y-96959000D01*
X177760000Y-83785000D02*
X177760000Y-96380000D01*
X177760000Y-96380000D02*
X178339000Y-96959000D01*
D31*
X142389050Y-42650050D02*
X32190050Y-42650050D01*
X145320000Y-45581000D02*
X142389050Y-42650050D01*
X30569000Y-41029000D02*
X30569000Y-34720000D01*
X32190050Y-42650050D02*
X30569000Y-41029000D01*
X194040000Y-32671000D02*
X194040000Y-33721000D01*
X194040000Y-33721000D02*
X194040000Y-35211000D01*
X194040000Y-38801000D02*
X194040000Y-40291000D01*
X194040000Y-40291000D02*
X194040000Y-41341000D01*
X194040000Y-41341000D02*
X194040000Y-42831000D01*
X194040000Y-37751000D02*
X194040000Y-38801000D01*
X194040000Y-36261000D02*
X194040000Y-37751000D01*
X194040000Y-35211000D02*
X194040000Y-36261000D01*
X194040000Y-43881000D02*
X194040000Y-45371000D01*
X194040000Y-42831000D02*
X194040000Y-43881000D01*
X152940000Y-33931000D02*
X152940000Y-35421000D01*
X152940000Y-32881000D02*
X152940000Y-33931000D01*
X152940000Y-36471000D02*
X152940000Y-37961000D01*
X152940000Y-35421000D02*
X152940000Y-36471000D01*
X152940000Y-39011000D02*
X152940000Y-40501000D01*
X152940000Y-37961000D02*
X152940000Y-39011000D01*
X152940000Y-41551000D02*
X152940000Y-43041000D01*
X152940000Y-40501000D02*
X152940000Y-41551000D01*
X152940000Y-44091000D02*
X152940000Y-45581000D01*
X152940000Y-43041000D02*
X152940000Y-44091000D01*
X171044315Y-99320000D02*
X169374325Y-100989990D01*
X169374325Y-100989990D02*
X155609990Y-100989990D01*
X155609990Y-100989990D02*
X155370020Y-100750020D01*
X171610000Y-99320000D02*
X171044315Y-99320000D01*
X155370020Y-100750020D02*
X155370020Y-46961020D01*
X153990000Y-45581000D02*
X152940000Y-45581000D01*
X155370020Y-46961020D02*
X153990000Y-45581000D01*
X171610000Y-99320000D02*
X172175685Y-99320000D01*
X173885675Y-101029990D02*
X191023600Y-101029990D01*
X191023600Y-101029990D02*
X191269980Y-100783610D01*
X172175685Y-99320000D02*
X173885675Y-101029990D01*
X191269980Y-49186020D02*
X191270000Y-49186000D01*
X191269980Y-47086020D02*
X191269980Y-49890020D01*
X192956000Y-45400000D02*
X191269980Y-47086020D01*
X194006000Y-45400000D02*
X192956000Y-45400000D01*
X191269980Y-100783610D02*
X191269980Y-49890020D01*
X191269980Y-49890020D02*
X191269980Y-49186020D01*
X144479040Y-42200040D02*
X51190040Y-42200040D01*
X145320000Y-43041000D02*
X144479040Y-42200040D01*
X49619000Y-40629000D02*
X49619000Y-34720000D01*
X51190040Y-42200040D02*
X49619000Y-40629000D01*
X145320000Y-40501000D02*
X138477860Y-40501000D01*
X137228830Y-41750030D02*
X70279970Y-41750030D01*
X138477860Y-40501000D02*
X137228830Y-41750030D01*
X68669000Y-40139060D02*
X68669000Y-34720000D01*
X70279970Y-41750030D02*
X68669000Y-40139060D01*
X145320000Y-37961000D02*
X140381450Y-37961000D01*
X137042430Y-41300020D02*
X89330020Y-41300020D01*
X140381450Y-37961000D02*
X137042430Y-41300020D01*
X87719000Y-39689000D02*
X87719000Y-34720000D01*
X89330020Y-41300020D02*
X87719000Y-39689000D01*
X145320000Y-35421000D02*
X142285040Y-35421000D01*
X136856030Y-40850010D02*
X108310010Y-40850010D01*
X142285040Y-35421000D02*
X136856030Y-40850010D01*
X106769000Y-39309000D02*
X106769000Y-34720000D01*
X108310010Y-40850010D02*
X106769000Y-39309000D01*
X125819000Y-36275634D02*
X125819000Y-34720000D01*
X125819000Y-39629000D02*
X125819000Y-36275634D01*
X126590000Y-40400000D02*
X125819000Y-39629000D01*
X136669630Y-40400000D02*
X126590000Y-40400000D01*
X144188630Y-32881000D02*
X136669630Y-40400000D01*
X145320000Y-32881000D02*
X144188630Y-32881000D01*
X201620000Y-32710000D02*
X203640000Y-34730000D01*
X203640000Y-34730000D02*
X213508000Y-34730000D01*
X209809960Y-43439960D02*
X231224040Y-43439960D01*
X201620000Y-35250000D02*
X209809960Y-43439960D01*
X232558000Y-42106000D02*
X232558000Y-34730000D01*
X231224040Y-43439960D02*
X232558000Y-42106000D01*
X251608000Y-42686000D02*
X251608000Y-34730000D01*
X250404030Y-43889970D02*
X251608000Y-42686000D01*
X201620000Y-37790000D02*
X207719970Y-43889970D01*
X207719970Y-43889970D02*
X250404030Y-43889970D01*
X270658000Y-43056000D02*
X270658000Y-34730000D01*
X201620000Y-40330000D02*
X205629980Y-44339980D01*
X205629980Y-44339980D02*
X269374020Y-44339980D01*
X269374020Y-44339980D02*
X270658000Y-43056000D01*
X289708000Y-43535980D02*
X289708000Y-34730000D01*
X203539990Y-44789990D02*
X288453990Y-44789990D01*
X288453990Y-44789990D02*
X289708000Y-43535980D01*
X201620000Y-42870000D02*
X203539990Y-44789990D01*
X308758000Y-43856000D02*
X308758000Y-34730000D01*
X201626000Y-45400000D02*
X202757370Y-45400000D01*
X202757370Y-45400000D02*
X202917370Y-45240000D01*
X202917370Y-45240000D02*
X301257002Y-45240000D01*
X301257002Y-45240000D02*
X301267002Y-45250000D01*
X301267002Y-45250000D02*
X307364000Y-45250000D01*
X307364000Y-45250000D02*
X308758000Y-43856000D01*
X194040000Y-51671000D02*
X194040000Y-52721000D01*
X194040000Y-52721000D02*
X194040000Y-54211000D01*
X194040000Y-57801000D02*
X194040000Y-59291000D01*
X194040000Y-59291000D02*
X194040000Y-60341000D01*
X194040000Y-60341000D02*
X194040000Y-61831000D01*
X194040000Y-56751000D02*
X194040000Y-57801000D01*
X194040000Y-55261000D02*
X194040000Y-56751000D01*
X194040000Y-54211000D02*
X194040000Y-55261000D01*
X194040000Y-62881000D02*
X194040000Y-64371000D01*
X194040000Y-61831000D02*
X194040000Y-62881000D01*
X152940000Y-51941000D02*
X152940000Y-52991000D01*
X152940000Y-52991000D02*
X152940000Y-54481000D01*
X152940000Y-58071000D02*
X152940000Y-59561000D01*
X152940000Y-59561000D02*
X152940000Y-60611000D01*
X152940000Y-60611000D02*
X152940000Y-62101000D01*
X152940000Y-57021000D02*
X152940000Y-58071000D01*
X152940000Y-55531000D02*
X152940000Y-57021000D01*
X152940000Y-54481000D02*
X152940000Y-55531000D01*
X152940000Y-63151000D02*
X152940000Y-64641000D01*
X152940000Y-62101000D02*
X152940000Y-63151000D01*
X154920010Y-100953600D02*
X155406410Y-101440000D01*
X154920010Y-65561010D02*
X154920010Y-100953600D01*
X152940000Y-64631000D02*
X153990000Y-64631000D01*
X153990000Y-64631000D02*
X154920010Y-65561010D01*
X170094315Y-101440000D02*
X155406410Y-101440000D01*
X171044315Y-100490000D02*
X170094315Y-101440000D01*
X171610000Y-100490000D02*
X171044315Y-100490000D01*
X192956000Y-64450000D02*
X194006000Y-64450000D01*
X171610000Y-100490000D02*
X172175685Y-100490000D01*
X172175685Y-100490000D02*
X173165685Y-101480000D01*
X173165685Y-101480000D02*
X191210000Y-101480000D01*
X191210000Y-101480000D02*
X191719990Y-100970010D01*
X191719990Y-100970010D02*
X191719990Y-65686010D01*
X191719990Y-65686010D02*
X192956000Y-64450000D01*
X144129010Y-63440010D02*
X32180010Y-63440010D01*
X145320000Y-64631000D02*
X144129010Y-63440010D01*
X30569000Y-61829000D02*
X30569000Y-53770000D01*
X32180010Y-63440010D02*
X30569000Y-61829000D01*
X137705640Y-62091000D02*
X136806640Y-62990000D01*
X145320000Y-62091000D02*
X137705640Y-62091000D01*
X136806640Y-62990000D02*
X51250000Y-62990000D01*
X49619000Y-61359000D02*
X49619000Y-53770000D01*
X51250000Y-62990000D02*
X49619000Y-61359000D01*
X145320000Y-59551000D02*
X139609230Y-59551000D01*
X136650200Y-62510030D02*
X70289970Y-62510030D01*
X139609230Y-59551000D02*
X136650200Y-62510030D01*
X68669000Y-60889060D02*
X68669000Y-53770000D01*
X70289970Y-62510030D02*
X68669000Y-60889060D01*
X145320000Y-57011000D02*
X141512820Y-57011000D01*
X136463800Y-62060020D02*
X89380020Y-62060020D01*
X141512820Y-57011000D02*
X136463800Y-62060020D01*
X87719000Y-60399000D02*
X87719000Y-53770000D01*
X89380020Y-62060020D02*
X87719000Y-60399000D01*
X145320000Y-54471000D02*
X143416410Y-54471000D01*
X136277400Y-61610010D02*
X108360010Y-61610010D01*
X143416410Y-54471000D02*
X136277400Y-61610010D01*
X106769000Y-60019000D02*
X106769000Y-53770000D01*
X108360010Y-61610010D02*
X106769000Y-60019000D01*
X145320000Y-51931000D02*
X136091000Y-61160000D01*
X136091000Y-61160000D02*
X127460000Y-61160000D01*
X125819000Y-59519000D02*
X125819000Y-53770000D01*
X127460000Y-61160000D02*
X125819000Y-59519000D01*
X203646000Y-53770000D02*
X213514000Y-53770000D01*
X201626000Y-51750000D02*
X203646000Y-53770000D01*
X201626000Y-54290000D02*
X209815960Y-62479960D01*
X209815960Y-62479960D02*
X231230040Y-62479960D01*
X232564000Y-61146000D02*
X232564000Y-53770000D01*
X231230040Y-62479960D02*
X232564000Y-61146000D01*
X207725970Y-62929970D02*
X250410030Y-62929970D01*
X201626000Y-56830000D02*
X207725970Y-62929970D01*
X251614000Y-61726000D02*
X251614000Y-53770000D01*
X250410030Y-62929970D02*
X251614000Y-61726000D01*
X270664000Y-62096000D02*
X270664000Y-53770000D01*
X269380020Y-63379980D02*
X270664000Y-62096000D01*
X201626000Y-59370000D02*
X205635980Y-63379980D01*
X205635980Y-63379980D02*
X269380020Y-63379980D01*
X201626000Y-61910000D02*
X203545990Y-63829990D01*
X203545990Y-63829990D02*
X288459990Y-63829990D01*
X289714000Y-62575980D02*
X289714000Y-53770000D01*
X288459990Y-63829990D02*
X289714000Y-62575980D01*
X202757370Y-64450000D02*
X202927370Y-64280000D01*
X201626000Y-64450000D02*
X202757370Y-64450000D01*
X301263002Y-64280000D02*
X301273002Y-64290000D01*
X202927370Y-64280000D02*
X301263002Y-64280000D01*
X301273002Y-64290000D02*
X307370000Y-64290000D01*
X308764000Y-62896000D02*
X308764000Y-53770000D01*
X307370000Y-64290000D02*
X308764000Y-62896000D01*
X194040000Y-70811000D02*
X194040000Y-71861000D01*
X194040000Y-71861000D02*
X194040000Y-73351000D01*
X194040000Y-76941000D02*
X194040000Y-78431000D01*
X194040000Y-78431000D02*
X194040000Y-79481000D01*
X194040000Y-79481000D02*
X194040000Y-80971000D01*
X194040000Y-75891000D02*
X194040000Y-76941000D01*
X194040000Y-74401000D02*
X194040000Y-75891000D01*
X194040000Y-73351000D02*
X194040000Y-74401000D01*
X194040000Y-82021000D02*
X194040000Y-83511000D01*
X194040000Y-80971000D02*
X194040000Y-82021000D01*
X152940000Y-71001000D02*
X152940000Y-72051000D01*
X152940000Y-72051000D02*
X152940000Y-73541000D01*
X152940000Y-77131000D02*
X152940000Y-78621000D01*
X152940000Y-78621000D02*
X152940000Y-79671000D01*
X152940000Y-79671000D02*
X152940000Y-81161000D01*
X152940000Y-76081000D02*
X152940000Y-77131000D01*
X152940000Y-74591000D02*
X152940000Y-76081000D01*
X152940000Y-73541000D02*
X152940000Y-74591000D01*
X152940000Y-82211000D02*
X152940000Y-83701000D01*
X152940000Y-81161000D02*
X152940000Y-82211000D01*
X175810444Y-93939000D02*
X175410444Y-93939000D01*
X153990000Y-83681000D02*
X154470000Y-84161000D01*
X152940000Y-83681000D02*
X153990000Y-83681000D01*
X154470000Y-84161000D02*
X154470000Y-101140000D01*
X154470000Y-101140000D02*
X155290000Y-101960000D01*
X170744315Y-101960000D02*
X155290000Y-101960000D01*
X171044315Y-101660000D02*
X170744315Y-101960000D01*
X171610000Y-101660000D02*
X171044315Y-101660000D01*
X171610000Y-101660000D02*
X172175685Y-101660000D01*
X172175685Y-101660000D02*
X172495676Y-101979991D01*
X192956000Y-83500000D02*
X192170000Y-84286000D01*
X194006000Y-83500000D02*
X192956000Y-83500000D01*
X192170000Y-84286000D02*
X192170000Y-101170000D01*
X191360009Y-101979991D02*
X172495676Y-101979991D01*
X192170000Y-101170000D02*
X191360009Y-101979991D01*
X143799010Y-82160010D02*
X32650010Y-82160010D01*
X145320000Y-83681000D02*
X143799010Y-82160010D01*
X30569000Y-80079000D02*
X30569000Y-72820000D01*
X32650010Y-82160010D02*
X30569000Y-80079000D01*
X49619000Y-80069000D02*
X49619000Y-72820000D01*
X51260000Y-81710000D02*
X49619000Y-80069000D01*
X137135640Y-81710000D02*
X51260000Y-81710000D01*
X145320000Y-81141000D02*
X137704640Y-81141000D01*
X137704640Y-81141000D02*
X137135640Y-81710000D01*
X145320000Y-78601000D02*
X139608230Y-78601000D01*
X136979200Y-81230030D02*
X70290030Y-81230030D01*
X139608230Y-78601000D02*
X136979200Y-81230030D01*
X68669000Y-79609000D02*
X68669000Y-72820000D01*
X70290030Y-81230030D02*
X68669000Y-79609000D01*
X145320000Y-76061000D02*
X141511820Y-76061000D01*
X136792800Y-80780020D02*
X89330020Y-80780020D01*
X141511820Y-76061000D02*
X136792800Y-80780020D01*
X87719000Y-79169000D02*
X87719000Y-72820000D01*
X89330020Y-80780020D02*
X87719000Y-79169000D01*
X145320000Y-73521000D02*
X143415410Y-73521000D01*
X136606400Y-80330010D02*
X108369990Y-80330010D01*
X143415410Y-73521000D02*
X136606400Y-80330010D01*
X106769000Y-78729020D02*
X106769000Y-72820000D01*
X108369990Y-80330010D02*
X106769000Y-78729020D01*
X125819000Y-78229000D02*
X125819000Y-72820000D01*
X127470000Y-79880000D02*
X125819000Y-78229000D01*
X136420000Y-79880000D02*
X127470000Y-79880000D01*
X144519001Y-71780999D02*
X136420000Y-79880000D01*
X145320000Y-70981000D02*
X144520001Y-71780999D01*
X144520001Y-71780999D02*
X144519001Y-71780999D01*
X201620000Y-70790000D02*
X203640000Y-72810000D01*
X203640000Y-72810000D02*
X213508000Y-72810000D01*
X209809960Y-81519960D02*
X231224040Y-81519960D01*
X201620000Y-73330000D02*
X209809960Y-81519960D01*
X232558000Y-80186000D02*
X232558000Y-72810000D01*
X231224040Y-81519960D02*
X232558000Y-80186000D01*
X251608000Y-80766000D02*
X251608000Y-72810000D01*
X250404030Y-81969970D02*
X251608000Y-80766000D01*
X201620000Y-75870000D02*
X207719970Y-81969970D01*
X207719970Y-81969970D02*
X250404030Y-81969970D01*
X270658000Y-81136000D02*
X270658000Y-72810000D01*
X201620000Y-78410000D02*
X205629980Y-82419980D01*
X205629980Y-82419980D02*
X269374020Y-82419980D01*
X269374020Y-82419980D02*
X270658000Y-81136000D01*
X289708000Y-81615980D02*
X289708000Y-72810000D01*
X203539990Y-82869990D02*
X288453990Y-82869990D01*
X288453990Y-82869990D02*
X289708000Y-81615980D01*
X201620000Y-80950000D02*
X203539990Y-82869990D01*
X308758000Y-81936000D02*
X308758000Y-72810000D01*
X301267002Y-83330000D02*
X307364000Y-83330000D01*
X301257002Y-83320000D02*
X301267002Y-83330000D01*
X202921370Y-83320000D02*
X301257002Y-83320000D01*
X307364000Y-83330000D02*
X308758000Y-81936000D01*
X202921370Y-83336000D02*
X202921370Y-83320000D01*
X202757370Y-83500000D02*
X202921370Y-83336000D01*
X201626000Y-83500000D02*
X202757370Y-83500000D01*
X194000000Y-89841000D02*
X194000000Y-90891000D01*
X194000000Y-90891000D02*
X194000000Y-92381000D01*
X194000000Y-95971000D02*
X194000000Y-97461000D01*
X194000000Y-97461000D02*
X194000000Y-98511000D01*
X194000000Y-98511000D02*
X194000000Y-100001000D01*
X194000000Y-94921000D02*
X194000000Y-95971000D01*
X194000000Y-93431000D02*
X194000000Y-94921000D01*
X194000000Y-92381000D02*
X194000000Y-93431000D01*
X194000000Y-101051000D02*
X194000000Y-102541000D01*
X194000000Y-100001000D02*
X194000000Y-101051000D01*
X152940000Y-89861000D02*
X152940000Y-90911000D01*
X152940000Y-90911000D02*
X152940000Y-92401000D01*
X152940000Y-95991000D02*
X152940000Y-97481000D01*
X152940000Y-97481000D02*
X152940000Y-98531000D01*
X152940000Y-98531000D02*
X152940000Y-100021000D01*
X152940000Y-94941000D02*
X152940000Y-95991000D01*
X152940000Y-93451000D02*
X152940000Y-94941000D01*
X152940000Y-92401000D02*
X152940000Y-93451000D01*
X152940000Y-101071000D02*
X152940000Y-102561000D01*
X152940000Y-100021000D02*
X152940000Y-101071000D01*
X175810444Y-91399000D02*
X175410444Y-91399000D01*
X171257000Y-102477000D02*
X171610000Y-102830000D01*
X152940000Y-102477000D02*
X171257000Y-102477000D01*
X172009999Y-102430001D02*
X193009999Y-102430001D01*
X171610000Y-102830000D02*
X172009999Y-102430001D01*
X193129998Y-102550000D02*
X194006000Y-102550000D01*
X193009999Y-102430001D02*
X193129998Y-102550000D01*
X172559000Y-91399000D02*
X175410444Y-91399000D01*
X172215000Y-91055000D02*
X172559000Y-91399000D01*
X172215000Y-82980000D02*
X172215000Y-91055000D01*
X166865000Y-82480000D02*
X171800251Y-82480000D01*
X161130000Y-66446870D02*
X162465000Y-67781870D01*
X162465000Y-67781870D02*
X162465000Y-72305000D01*
X165565000Y-73355000D02*
X165565000Y-81265251D01*
X162465000Y-72305000D02*
X163140000Y-72980000D01*
X163140000Y-72980000D02*
X165190000Y-72980000D01*
X161130000Y-65740000D02*
X161130000Y-66446870D01*
X165190000Y-72980000D02*
X165565000Y-73355000D01*
X165650251Y-81265251D02*
X166865000Y-82480000D01*
X165565000Y-81265251D02*
X165650251Y-81265251D01*
X171800251Y-82565251D02*
X172215000Y-82980000D01*
X171800251Y-82480000D02*
X171800251Y-82565251D01*
X143783050Y-100940050D02*
X32230050Y-100940050D01*
X145320000Y-102477000D02*
X143783050Y-100940050D01*
X30130000Y-92309000D02*
X30569000Y-91870000D01*
X30130000Y-93501998D02*
X30130000Y-92309000D01*
X30474001Y-93845999D02*
X30130000Y-93501998D01*
X32230050Y-100940050D02*
X30474001Y-99184001D01*
X30474001Y-99184001D02*
X30474001Y-93845999D01*
X137185600Y-100490040D02*
X51230040Y-100490040D01*
X145320000Y-99937000D02*
X137738640Y-99937000D01*
X137738640Y-99937000D02*
X137185600Y-100490040D01*
X49619000Y-98879000D02*
X49619000Y-91870000D01*
X51230040Y-100490040D02*
X49619000Y-98879000D01*
X145320000Y-97397000D02*
X139642230Y-97397000D01*
X136999200Y-100040030D02*
X70430030Y-100040030D01*
X139642230Y-97397000D02*
X136999200Y-100040030D01*
X68669000Y-98279000D02*
X68669000Y-91870000D01*
X70430030Y-100040030D02*
X68669000Y-98279000D01*
X145320000Y-94897000D02*
X141505820Y-94897000D01*
X136812800Y-99590020D02*
X89330020Y-99590020D01*
X141505820Y-94897000D02*
X136812800Y-99590020D01*
X87719000Y-97979000D02*
X87719000Y-91870000D01*
X89330020Y-99590020D02*
X87719000Y-97979000D01*
X145320000Y-92357000D02*
X143409410Y-92357000D01*
X136626400Y-99140010D02*
X108430010Y-99140010D01*
X143409410Y-92357000D02*
X136626400Y-99140010D01*
X106769000Y-97479000D02*
X106769000Y-91870000D01*
X108430010Y-99140010D02*
X106769000Y-97479000D01*
X144520001Y-90616999D02*
X144513001Y-90616999D01*
X145320000Y-89817000D02*
X144520001Y-90616999D01*
X144513001Y-90616999D02*
X136440000Y-98690000D01*
X136440000Y-98690000D02*
X127430000Y-98690000D01*
X125819000Y-97079000D02*
X125819000Y-91870000D01*
X127430000Y-98690000D02*
X125819000Y-97079000D01*
X201630000Y-89850000D02*
X203650000Y-91870000D01*
X203650000Y-91870000D02*
X213518000Y-91870000D01*
X209819960Y-100579960D02*
X231234040Y-100579960D01*
X201630000Y-92390000D02*
X209819960Y-100579960D01*
X232568000Y-99246000D02*
X232568000Y-91870000D01*
X231234040Y-100579960D02*
X232568000Y-99246000D01*
X251618000Y-99826000D02*
X251618000Y-91870000D01*
X250414030Y-101029970D02*
X251618000Y-99826000D01*
X250414030Y-101029970D02*
X209633559Y-101029969D01*
X203533590Y-94930000D02*
X201626000Y-94930000D01*
X209633559Y-101029969D02*
X203533590Y-94930000D01*
X270668000Y-100196000D02*
X270668000Y-91870000D01*
X269384020Y-101479980D02*
X270668000Y-100196000D01*
X269384018Y-101479978D02*
X269384020Y-101479980D01*
X209447160Y-101479978D02*
X269384018Y-101479978D01*
X205187172Y-97219990D02*
X203779600Y-97219990D01*
X209447160Y-101479978D02*
X205187172Y-97219990D01*
X203529590Y-97470000D02*
X201626000Y-97470000D01*
X203779600Y-97219990D02*
X203529590Y-97470000D01*
X289718000Y-100675980D02*
X289718000Y-91870000D01*
X288463990Y-101929990D02*
X289718000Y-100675980D01*
X201626000Y-100010000D02*
X203966000Y-97670000D01*
X203966000Y-97670000D02*
X205000771Y-97670000D01*
X205000771Y-97670000D02*
X205000771Y-97670771D01*
X288463988Y-101929988D02*
X288463990Y-101929990D01*
X209259988Y-101929988D02*
X288463988Y-101929988D01*
X205000771Y-97670771D02*
X209259988Y-101929988D01*
X308768000Y-100996000D02*
X308768000Y-91870000D01*
X301267002Y-102380000D02*
X301277002Y-102390000D01*
X301277002Y-102390000D02*
X307374000Y-102390000D01*
X307374000Y-102390000D02*
X308768000Y-100996000D01*
X201626000Y-102550000D02*
X203080000Y-101096000D01*
X203080000Y-99200000D02*
X204159990Y-98120010D01*
X203080000Y-101096000D02*
X203080000Y-99200000D01*
X204159990Y-98120010D02*
X204813600Y-98120010D01*
X204813600Y-98120010D02*
X209073590Y-102380000D01*
X307364000Y-102380000D02*
X307374000Y-102390000D01*
X209073590Y-102380000D02*
X307364000Y-102380000D01*
X170495630Y-36750000D02*
X171627000Y-36750000D01*
X169430641Y-36750000D02*
X170495630Y-36750000D01*
X164586990Y-31906349D02*
X169430641Y-36750000D01*
X164586990Y-31879990D02*
X164586990Y-31906349D01*
X163587000Y-30880000D02*
X164586990Y-31879990D01*
X185262000Y-36655000D02*
X186312000Y-36655000D01*
X183887000Y-35280000D02*
X185262000Y-36655000D01*
X174228370Y-35280000D02*
X183887000Y-35280000D01*
X171627000Y-36750000D02*
X172758370Y-36750000D01*
X172758370Y-36750000D02*
X174228370Y-35280000D01*
X163670000Y-68280000D02*
X162963130Y-68280000D01*
X180976213Y-29180000D02*
X186062000Y-29180000D01*
X179562000Y-29180000D02*
X180976213Y-29180000D01*
X167531444Y-63200000D02*
X167790444Y-63459000D01*
X163670000Y-63200000D02*
X167531444Y-63200000D01*
X186062000Y-29180000D02*
X190819970Y-33937970D01*
X190819969Y-74873033D02*
X188488002Y-77205000D01*
X190819970Y-33937970D02*
X190819969Y-74873033D01*
X187540000Y-77170000D02*
X187575000Y-77205000D01*
X187540000Y-73282980D02*
X187540000Y-77170000D01*
X186751010Y-72493990D02*
X187540000Y-73282980D01*
X172501010Y-72493990D02*
X186751010Y-72493990D01*
X171990000Y-73005000D02*
X172501010Y-72493990D01*
X171215000Y-74855000D02*
X171990000Y-74080000D01*
X188488002Y-77205000D02*
X187575000Y-77205000D01*
X171990000Y-74080000D02*
X171990000Y-73005000D01*
X166440000Y-74855000D02*
X171215000Y-74855000D01*
X167790444Y-63459000D02*
X167390444Y-63459000D01*
X167390444Y-63459000D02*
X166265434Y-64584010D01*
X166265434Y-64584010D02*
X166265434Y-74680434D01*
X166265434Y-74680434D02*
X166440000Y-74855000D01*
X186815000Y-77205000D02*
X187575000Y-77205000D01*
X181065000Y-77205000D02*
X186815000Y-77205000D01*
X180660000Y-84259000D02*
X180660000Y-77610000D01*
X180660000Y-77610000D02*
X181065000Y-77205000D01*
X173812000Y-53655000D02*
X182465000Y-53655000D01*
X182465000Y-53655000D02*
X182515000Y-53705000D01*
X183400000Y-63040000D02*
X185712000Y-63040000D01*
X182515000Y-58080000D02*
X182515000Y-62155000D01*
X182515000Y-62155000D02*
X183400000Y-63040000D01*
X175810444Y-63459000D02*
X175410444Y-63459000D01*
X177106444Y-64755000D02*
X175810444Y-63459000D01*
X183997000Y-64755000D02*
X177106444Y-64755000D01*
X185712000Y-63040000D02*
X183997000Y-64755000D01*
X180241000Y-63459000D02*
X180660000Y-63040000D01*
X174943370Y-58075834D02*
X174947536Y-58080000D01*
X173812000Y-58075834D02*
X174943370Y-58075834D01*
X174947536Y-58080000D02*
X179990000Y-58080000D01*
X180660000Y-58750000D02*
X180660000Y-63040000D01*
X179990000Y-58080000D02*
X180660000Y-58750000D01*
X175010444Y-65999000D02*
X175410444Y-65999000D01*
X173812000Y-64800556D02*
X175010444Y-65999000D01*
X173812000Y-58075834D02*
X173812000Y-64800556D01*
X185712001Y-57275835D02*
X186512000Y-58075834D01*
X184496176Y-56060010D02*
X185712001Y-57275835D01*
X164882010Y-56060010D02*
X184496176Y-56060010D01*
X162877000Y-54055000D02*
X164882010Y-56060010D01*
X169136999Y-54954999D02*
X169136999Y-54976999D01*
X168237000Y-54055000D02*
X169136999Y-54954999D01*
X169136999Y-54976999D02*
X169770000Y-55610000D01*
X184557000Y-55610000D02*
X186512000Y-53655000D01*
X169770000Y-55610000D02*
X184557000Y-55610000D01*
X170317000Y-48140000D02*
X171627000Y-49450000D01*
X165020000Y-48140000D02*
X170317000Y-48140000D01*
X162060000Y-51100000D02*
X165020000Y-48140000D01*
X158230000Y-51100000D02*
X162060000Y-51100000D01*
X158230000Y-61480000D02*
X158230000Y-51100000D01*
X169240444Y-71079000D02*
X169315445Y-71003999D01*
X167790444Y-71079000D02*
X169240444Y-71079000D01*
X169315445Y-71003999D02*
X169315445Y-61875445D01*
X169315445Y-61875445D02*
X169170000Y-61730000D01*
X169170000Y-61730000D02*
X158480000Y-61730000D01*
X158480000Y-61730000D02*
X158230000Y-61480000D01*
X162246401Y-51550009D02*
X164346410Y-49450000D01*
X164346410Y-49450000D02*
X166332000Y-49450000D01*
X159239990Y-51550010D02*
X162246401Y-51550009D01*
X158680010Y-52109990D02*
X159239990Y-51550010D01*
X169240444Y-73619000D02*
X169765455Y-73093989D01*
X167790444Y-73619000D02*
X169240444Y-73619000D01*
X169765455Y-73093989D02*
X169765454Y-61689044D01*
X158680010Y-61260010D02*
X158680010Y-52109990D01*
X169765454Y-61689044D02*
X169356400Y-61279990D01*
X169356400Y-61279990D02*
X158699990Y-61279990D01*
X158699990Y-61279990D02*
X158680010Y-61260010D01*
X174847787Y-29180000D02*
X169762000Y-29180000D01*
X176262000Y-29180000D02*
X174847787Y-29180000D01*
X176262000Y-29180000D02*
X178319205Y-31237205D01*
X178319205Y-31237205D02*
X187482795Y-31237205D01*
X187482795Y-31237205D02*
X190369960Y-34124370D01*
X190369960Y-34124370D02*
X190369960Y-71030000D01*
X190369960Y-71030000D02*
X190369960Y-74250040D01*
X190369960Y-74250040D02*
X188890000Y-75730000D01*
M02*
