M48
; DRILL file {KiCad (5.1.2)-1} date 5/3/2019 10:46:07 PM
; FORMAT={2:4/ absolute / inch / suppress leading zeros}
; #@! TF.CreationDate,2019-05-03T22:46:07-04:00
; #@! TF.GenerationSoftware,Kicad,Pcbnew,(5.1.2)-1
; #@! TF.FileFunction,Plated,1,2,PTH
FMAT,2
INCH,TZ
T1C0.0157
T2C0.0236
T3C0.0276
T4C0.0280
T5C0.0315
T6C0.0315
T7C0.0354
T8C0.0400
T9C0.0433
T10C0.0591
%
G90
G05
T1
X67563Y-39102
X67563Y-39563
X67563Y-40024
X67563Y-40484
X71856Y-21144
X71856Y-22866
X74366Y-29815
T2
X69488Y-18614
X70079Y-18614
T3
X63774Y-12157
X64089Y-11469
X64404Y-12157
X64719Y-11469
X65034Y-12157
T4
X69457Y-16783
X70087Y-14776
T5
X57213Y-32945
X60213Y-32945
X76380Y-32874
X79380Y-32874
X57213Y-29945
X60213Y-29945
X63343Y-37179
X63343Y-38163
X76380Y-27874
X79380Y-27874
X57213Y-12945
X60213Y-12945
X66059Y-24984
X66059Y-25984
X66059Y-26984
X66059Y-27984
X66059Y-28984
X66059Y-29984
X66059Y-30984
X66059Y-31984
X66059Y-32984
X66059Y-33984
X66059Y-34984
X66059Y-35984
X66059Y-36984
X66059Y-37984
X69059Y-24984
X69059Y-25984
X69059Y-26984
X69059Y-27984
X69059Y-28984
X69059Y-29984
X69059Y-30984
X69059Y-31984
X69059Y-32984
X69059Y-33984
X69059Y-34984
X69059Y-35984
X69059Y-36984
X69059Y-37984
X76380Y-14874
X79380Y-14874
X71126Y-24819
X71126Y-29819
X76380Y-29874
X79380Y-29874
X57213Y-24445
X60213Y-24445
X71739Y-14431
X71739Y-17431
X57213Y-17945
X60213Y-17945
X76380Y-22374
X79380Y-22374
X57213Y-39345
X60213Y-39345
X64507Y-29364
X64507Y-31333
X57213Y-25445
X60213Y-25445
X73351Y-14431
X73351Y-17431
X63282Y-29364
X63282Y-31333
X76380Y-17874
X79380Y-17874
X57213Y-40345
X60213Y-40345
X76380Y-28874
X79380Y-28874
X57213Y-21445
X60213Y-21445
X76380Y-36374
X79380Y-36374
X65485Y-14469
X65485Y-19469
X76380Y-40374
X79380Y-40374
X57213Y-14945
X60213Y-14945
X63896Y-33307
X63896Y-35228
X76380Y-20374
X79380Y-20374
X57213Y-13945
X60213Y-13945
X68430Y-21124
X73430Y-21124
X71126Y-33173
X71126Y-38173
X57213Y-35361
X60213Y-35361
X76380Y-21374
X79380Y-21374
X57213Y-30945
X60213Y-30945
X57213Y-23445
X60213Y-23445
X76380Y-15874
X79380Y-15874
X57213Y-38345
X60213Y-38345
X63400Y-14469
X63400Y-19469
X57213Y-31945
X60213Y-31945
X76380Y-25374
X79380Y-25374
X68430Y-22865
X73430Y-22865
X57213Y-22445
X60213Y-22445
X76380Y-35374
X79380Y-35374
X76380Y-31874
X79380Y-31874
X57213Y-20445
X60213Y-20445
X76380Y-38374
X79380Y-38374
X64454Y-37179
X64454Y-38163
X57213Y-16945
X60213Y-16945
X73115Y-24819
X73115Y-29819
X57213Y-37361
X60213Y-37361
X76380Y-13874
X79380Y-13874
X76380Y-23374
X79380Y-23374
X76380Y-16874
X79380Y-16874
X76380Y-39374
X79380Y-39374
X76380Y-12874
X79380Y-12874
X57213Y-15945
X60213Y-15945
X76380Y-30874
X79380Y-30874
X76380Y-24374
X79380Y-24374
X76380Y-37374
X79380Y-37374
X57213Y-27945
X60213Y-27945
X67570Y-14469
X67570Y-19469
X57213Y-28945
X60213Y-28945
X57213Y-36361
X60213Y-36361
T6
X63263Y-23280
X64513Y-23280
X65763Y-23280
X67013Y-23280
T7
X65235Y-21281
X66235Y-21281
X63125Y-21281
X64125Y-21281
T8
X63437Y-24882
X63437Y-25882
X63437Y-26882
X64437Y-24882
X64437Y-25882
X64437Y-26882
T9
X70694Y-11488
X70694Y-13260
X73253Y-11488
X73253Y-13260
X66835Y-11488
X66835Y-13260
X69394Y-11488
X69394Y-13260
T10
X27035Y-36169
X29535Y-35169
X99061Y-21169
X101561Y-20169
X121561Y-21169
X124061Y-20169
X91561Y-36169
X94061Y-35169
X84061Y-13669
X86561Y-12669
X42035Y-28669
X44535Y-27669
X121561Y-28669
X124061Y-27669
X34535Y-13669
X37035Y-12669
X84061Y-28669
X86561Y-27669
X121561Y-13669
X124061Y-12669
X84061Y-21169
X86561Y-20169
X19535Y-21169
X22035Y-20169
X49535Y-21169
X52035Y-20169
X34535Y-21169
X37035Y-20169
X106561Y-36169
X109061Y-35169
X84061Y-36169
X86561Y-35169
X91561Y-28669
X94061Y-27669
X19535Y-28669
X22035Y-27669
X49535Y-36169
X52035Y-35169
X12035Y-13669
X14535Y-12669
X34535Y-28669
X37035Y-27669
X42035Y-36169
X44535Y-35169
X91561Y-13669
X94061Y-12669
X114061Y-21169
X116561Y-20169
X34535Y-36169
X37035Y-35169
X49535Y-13669
X52035Y-12669
X99061Y-28669
X101561Y-27669
X27035Y-13669
X29535Y-12669
X106561Y-21169
X109061Y-20169
X106561Y-13669
X109061Y-12669
X19535Y-36169
X22035Y-35169
X19535Y-13669
X22035Y-12669
X12035Y-36169
X14535Y-35169
X121561Y-36169
X124061Y-35169
X12035Y-28669
X14535Y-27669
X114061Y-36169
X116561Y-35169
X42035Y-21169
X44535Y-20169
X91561Y-21169
X94061Y-20169
X99061Y-36169
X101561Y-35169
X42035Y-13669
X44535Y-12669
X49535Y-28669
X52035Y-27669
X99061Y-13669
X101561Y-12669
X27035Y-28669
X29535Y-27669
X114061Y-13669
X116561Y-12669
X106561Y-28669
X109061Y-27669
X12035Y-21169
X14535Y-20169
X114061Y-28669
X116561Y-27669
X27035Y-21169
X29535Y-20169
T3
G00X62967Y-11557
M15
G01X62967Y-12069
M16
G05
G00X65841Y-11557
M15
G01X65841Y-12069
M16
G05
T0
M30
