M48
; DRILL file {KiCad (5.1.2)-1} date 5/3/2019 10:46:07 PM
; FORMAT={2:4/ absolute / inch / suppress leading zeros}
; #@! TF.CreationDate,2019-05-03T22:46:07-04:00
; #@! TF.GenerationSoftware,Kicad,Pcbnew,(5.1.2)-1
; #@! TF.FileFunction,NonPlated,1,2,NPTH
FMAT,2
INCH,TZ
T1C0.0669
T2C0.1575
%
G90
G05
T1
X26535Y-37169
X30535Y-37169
X98561Y-22169
X102561Y-22169
X121061Y-22169
X125061Y-22169
X91061Y-37169
X95061Y-37169
X83561Y-14669
X87561Y-14669
X41535Y-29669
X45535Y-29669
X121061Y-29669
X125061Y-29669
X34035Y-14669
X38035Y-14669
X83561Y-29669
X87561Y-29669
X121061Y-14669
X125061Y-14669
X83561Y-22169
X87561Y-22169
X19035Y-22169
X23035Y-22169
X49035Y-22169
X53035Y-22169
X34035Y-22169
X38035Y-22169
X106061Y-37169
X110061Y-37169
X83561Y-37169
X87561Y-37169
X91061Y-29669
X95061Y-29669
X19035Y-29669
X23035Y-29669
X49035Y-37169
X53035Y-37169
X11535Y-14669
X15535Y-14669
X34035Y-29669
X38035Y-29669
X41535Y-37169
X45535Y-37169
X91061Y-14669
X95061Y-14669
X113561Y-22169
X117561Y-22169
X34035Y-37169
X38035Y-37169
X49035Y-14669
X53035Y-14669
X98561Y-29669
X102561Y-29669
X26535Y-14669
X30535Y-14669
X106061Y-22169
X110061Y-22169
X106061Y-14669
X110061Y-14669
X19035Y-37169
X23035Y-37169
X19035Y-14669
X23035Y-14669
X11535Y-37169
X15535Y-37169
X121061Y-37169
X125061Y-37169
X11535Y-29669
X15535Y-29669
X113561Y-37169
X117561Y-37169
X41535Y-22169
X45535Y-22169
X91061Y-22169
X95061Y-22169
X98561Y-37169
X102561Y-37169
X41535Y-14669
X45535Y-14669
X49035Y-29669
X53035Y-29669
X98561Y-14669
X102561Y-14669
X26535Y-29669
X30535Y-29669
X113561Y-14669
X117561Y-14669
X106061Y-29669
X110061Y-29669
X11535Y-22169
X15535Y-22169
X113561Y-29669
X117561Y-29669
X26535Y-22169
X30535Y-22169
T2
X123061Y-14669
X85561Y-22169
X21035Y-22169
X51035Y-22169
X36035Y-22169
X108061Y-37169
X85561Y-37169
X93061Y-29669
X21035Y-29669
X51035Y-37169
X13535Y-14669
X36035Y-29669
X43535Y-37169
X93061Y-14669
X115561Y-22169
X36035Y-37169
X51035Y-14669
X100561Y-29669
X28535Y-14669
X108061Y-22169
X108061Y-14669
X21035Y-37169
X21035Y-14669
X13535Y-37169
X123061Y-37169
X13535Y-29669
X115561Y-37169
X43535Y-22169
X93061Y-22169
X100561Y-37169
X43535Y-14669
X51035Y-29669
X100561Y-14669
X28535Y-29669
X115561Y-14669
X108061Y-29669
X13535Y-22169
X115561Y-29669
X28535Y-22169
X28535Y-37169
X100561Y-22169
X123061Y-22169
X93061Y-37169
X85561Y-14669
X43535Y-29669
X123061Y-29669
X36035Y-14669
X85561Y-29669
T0
M30
