G04 #@! TF.GenerationSoftware,KiCad,Pcbnew,(5.1.2)-1*
G04 #@! TF.CreationDate,2019-05-03T22:44:58-04:00*
G04 #@! TF.ProjectId,Ergonomic_Ortholinear_Keyboard,4572676f-6e6f-46d6-9963-5f4f7274686f,rev?*
G04 #@! TF.SameCoordinates,Original*
G04 #@! TF.FileFunction,Copper,L2,Bot*
G04 #@! TF.FilePolarity,Positive*
%FSLAX46Y46*%
G04 Gerber Fmt 4.6, Leading zero omitted, Abs format (unit mm)*
G04 Created by KiCad (PCBNEW (5.1.2)-1) date 2019-05-03 22:44:58*
%MOMM*%
%LPD*%
G04 APERTURE LIST*
%ADD10R,1.600000X1.600000*%
%ADD11O,1.600000X1.600000*%
%ADD12O,1.727200X1.727200*%
%ADD13R,1.727200X1.727200*%
%ADD14C,1.998980*%
%ADD15R,1.998980X1.998980*%
%ADD16C,1.600000*%
%ADD17C,1.200000*%
%ADD18R,1.200000X1.200000*%
%ADD19C,1.270000*%
%ADD20O,1.100000X2.400000*%
%ADD21C,1.100000*%
%ADD22R,1.100000X1.100000*%
%ADD23C,1.800000*%
%ADD24R,1.800000X1.800000*%
%ADD25C,2.200000*%
%ADD26C,2.000000*%
%ADD27C,1.500000*%
%ADD28C,0.800000*%
%ADD29C,0.450000*%
%ADD30C,0.250000*%
G04 APERTURE END LIST*
D10*
X152940000Y-45581000D03*
D11*
X145320000Y-45581000D03*
X145320000Y-59551000D03*
D10*
X152940000Y-59551000D03*
D11*
X145320000Y-54471000D03*
D10*
X152940000Y-54471000D03*
D11*
X145320000Y-51931000D03*
D10*
X152940000Y-51931000D03*
D11*
X145320000Y-76061000D03*
D10*
X152940000Y-76061000D03*
D11*
X145320000Y-70981000D03*
D10*
X152940000Y-70981000D03*
D11*
X145320000Y-94897000D03*
D10*
X152940000Y-94897000D03*
D11*
X145320000Y-89817000D03*
D10*
X152940000Y-89817000D03*
X194006000Y-75880000D03*
D11*
X201626000Y-75880000D03*
D10*
X194006000Y-70800000D03*
D11*
X201626000Y-70800000D03*
D10*
X194006000Y-59370000D03*
D11*
X201626000Y-59370000D03*
X201626000Y-32700000D03*
D10*
X194006000Y-32700000D03*
D11*
X175410444Y-63459000D03*
X167790444Y-96479000D03*
X175410444Y-65999000D03*
X167790444Y-93939000D03*
X175410444Y-68539000D03*
X167790444Y-91399000D03*
X175410444Y-71079000D03*
X167790444Y-88859000D03*
X175410444Y-73619000D03*
X167790444Y-86319000D03*
X175410444Y-76159000D03*
X167790444Y-83779000D03*
X175410444Y-78699000D03*
X167790444Y-81239000D03*
X175410444Y-81239000D03*
X167790444Y-78699000D03*
X175410444Y-83779000D03*
X167790444Y-76159000D03*
X175410444Y-86319000D03*
X167790444Y-73619000D03*
X175410444Y-88859000D03*
X167790444Y-71079000D03*
X175410444Y-91399000D03*
X167790444Y-68539000D03*
X175410444Y-93939000D03*
X167790444Y-65999000D03*
X175410444Y-96479000D03*
D10*
X167790444Y-63459000D03*
D11*
X201626000Y-102550000D03*
D10*
X194006000Y-102550000D03*
X194006000Y-51750000D03*
D11*
X201626000Y-51750000D03*
X145320000Y-64631000D03*
D10*
X152940000Y-64631000D03*
D11*
X145320000Y-57011000D03*
D10*
X152940000Y-57011000D03*
D11*
X145320000Y-81141000D03*
D10*
X152940000Y-81141000D03*
D11*
X145320000Y-73521000D03*
D10*
X152940000Y-73521000D03*
D11*
X145320000Y-43041000D03*
D10*
X152940000Y-43041000D03*
D11*
X145320000Y-40501000D03*
D10*
X152940000Y-40501000D03*
D11*
X145320000Y-37961000D03*
D10*
X152940000Y-37961000D03*
D11*
X145320000Y-35421000D03*
D10*
X152940000Y-35421000D03*
D11*
X145320000Y-32881000D03*
D10*
X152940000Y-32881000D03*
D11*
X201626000Y-35240000D03*
D10*
X194006000Y-35240000D03*
X194006000Y-37780000D03*
D11*
X201626000Y-37780000D03*
D10*
X194006000Y-40320000D03*
D11*
X201626000Y-40320000D03*
D10*
X194006000Y-42860000D03*
D11*
X201626000Y-42860000D03*
X201626000Y-45400000D03*
D10*
X194006000Y-45400000D03*
D11*
X145320000Y-62091000D03*
D10*
X152940000Y-62091000D03*
X194006000Y-54290000D03*
D11*
X201626000Y-54290000D03*
D10*
X194006000Y-56830000D03*
D11*
X201626000Y-56830000D03*
D10*
X194006000Y-61910000D03*
D11*
X201626000Y-61910000D03*
D10*
X194006000Y-64450000D03*
D11*
X201626000Y-64450000D03*
X145320000Y-83681000D03*
D10*
X152940000Y-83681000D03*
D11*
X145320000Y-78601000D03*
D10*
X152940000Y-78601000D03*
X194006000Y-73340000D03*
D11*
X201626000Y-73340000D03*
D10*
X194006000Y-78420000D03*
D11*
X201626000Y-78420000D03*
D10*
X194006000Y-80960000D03*
D11*
X201626000Y-80960000D03*
D10*
X194006000Y-83500000D03*
D11*
X201626000Y-83500000D03*
X145320000Y-102477000D03*
D10*
X152940000Y-102477000D03*
D11*
X145320000Y-99937000D03*
D10*
X152940000Y-99937000D03*
D11*
X145320000Y-97397000D03*
D10*
X152940000Y-97397000D03*
D11*
X145320000Y-92357000D03*
D10*
X152940000Y-92357000D03*
X194006000Y-89850000D03*
D11*
X201626000Y-89850000D03*
D10*
X194006000Y-92390000D03*
D11*
X201626000Y-92390000D03*
D10*
X194006000Y-94930000D03*
D11*
X201626000Y-94930000D03*
X201626000Y-97470000D03*
D10*
X194006000Y-97470000D03*
X194006000Y-100010000D03*
D11*
X201626000Y-100010000D03*
X186312000Y-44275000D03*
D10*
X186312000Y-36655000D03*
D11*
X182217000Y-44275000D03*
D10*
X182217000Y-36655000D03*
D12*
X161130000Y-63200000D03*
X163670000Y-63200000D03*
X161130000Y-65740000D03*
X163670000Y-65740000D03*
X161130000Y-68280000D03*
D13*
X163670000Y-68280000D03*
D14*
X170212000Y-59130000D03*
X167037000Y-59130000D03*
X163862000Y-59130000D03*
D15*
X160687000Y-59130000D03*
D16*
X163712000Y-94435000D03*
X163712000Y-96935000D03*
X160890000Y-94435000D03*
X160890000Y-96935000D03*
D17*
X177999401Y-47280000D03*
D18*
X176499401Y-47280000D03*
D16*
X163847000Y-79585000D03*
X163847000Y-74585000D03*
X160737000Y-79585000D03*
X160737000Y-74585000D03*
D19*
X176422000Y-42630000D03*
X178022000Y-37530000D03*
D20*
X167237000Y-30005000D03*
X159937000Y-30005000D03*
D21*
X165187000Y-30880000D03*
X164387000Y-29130000D03*
X163587000Y-30880000D03*
X162787000Y-29130000D03*
D22*
X161987000Y-30880000D03*
D23*
X162877000Y-54055000D03*
D24*
X160337000Y-54055000D03*
D23*
X168237000Y-54055000D03*
D24*
X165697000Y-54055000D03*
D11*
X161037000Y-36750000D03*
D16*
X161037000Y-49450000D03*
D11*
X171627000Y-36750000D03*
D16*
X171627000Y-49450000D03*
D11*
X166332000Y-49450000D03*
D16*
X166332000Y-36750000D03*
D11*
X180660000Y-63040000D03*
D16*
X180660000Y-75740000D03*
D11*
X185712000Y-63040000D03*
D16*
X185712000Y-75740000D03*
D11*
X180660000Y-84259000D03*
D16*
X180660000Y-96959000D03*
D11*
X173812000Y-58075834D03*
D16*
X186512000Y-58075834D03*
D11*
X173812000Y-53655000D03*
D16*
X186512000Y-53655000D03*
D25*
X36919000Y-32180000D03*
X30569000Y-34720000D03*
X55969000Y-32180000D03*
X49619000Y-34720000D03*
X75019000Y-32180000D03*
X68669000Y-34720000D03*
X94069000Y-32180000D03*
X87719000Y-34720000D03*
X113119000Y-32180000D03*
X106769000Y-34720000D03*
X132169000Y-32180000D03*
X125819000Y-34720000D03*
X213514000Y-34720000D03*
X219864000Y-32180000D03*
X232564000Y-34720000D03*
X238914000Y-32180000D03*
X251614000Y-34720000D03*
X257964000Y-32180000D03*
X270664000Y-34720000D03*
X277014000Y-32180000D03*
X289714000Y-34720000D03*
X296064000Y-32180000D03*
X308764000Y-34720000D03*
X315114000Y-32180000D03*
X36919000Y-51230000D03*
X30569000Y-53770000D03*
X55969000Y-51230000D03*
X49619000Y-53770000D03*
X75019000Y-51230000D03*
X68669000Y-53770000D03*
X94069000Y-51230000D03*
X87719000Y-53770000D03*
X113119000Y-51230000D03*
X106769000Y-53770000D03*
X132169000Y-51230000D03*
X125819000Y-53770000D03*
X213514000Y-53770000D03*
X219864000Y-51230000D03*
X232564000Y-53770000D03*
X238914000Y-51230000D03*
X251614000Y-53770000D03*
X257964000Y-51230000D03*
X270664000Y-53770000D03*
X277014000Y-51230000D03*
X289714000Y-53770000D03*
X296064000Y-51230000D03*
X308764000Y-53770000D03*
X315114000Y-51230000D03*
X36919000Y-70280000D03*
X30569000Y-72820000D03*
X55969000Y-70280000D03*
X49619000Y-72820000D03*
X75019000Y-70280000D03*
X68669000Y-72820000D03*
X94069000Y-70280000D03*
X87719000Y-72820000D03*
X113119000Y-70280000D03*
X106769000Y-72820000D03*
X132169000Y-70280000D03*
X125819000Y-72820000D03*
X213514000Y-72820000D03*
X219864000Y-70280000D03*
X232564000Y-72820000D03*
X238914000Y-70280000D03*
X251614000Y-72820000D03*
X257964000Y-70280000D03*
X270664000Y-72820000D03*
X277014000Y-70280000D03*
X289714000Y-72820000D03*
X296064000Y-70280000D03*
X308764000Y-72820000D03*
X315114000Y-70280000D03*
X36919000Y-89330000D03*
X30569000Y-91870000D03*
X55969000Y-89330000D03*
X49619000Y-91870000D03*
X75019000Y-89330000D03*
X68669000Y-91870000D03*
X94069000Y-89330000D03*
X87719000Y-91870000D03*
X113119000Y-89330000D03*
X106769000Y-91870000D03*
X132169000Y-89330000D03*
X125819000Y-91870000D03*
X213514000Y-91870000D03*
X219864000Y-89330000D03*
X232564000Y-91870000D03*
X238914000Y-89330000D03*
X251614000Y-91870000D03*
X257964000Y-89330000D03*
X270664000Y-91870000D03*
X277014000Y-89330000D03*
X289714000Y-91870000D03*
X296064000Y-89330000D03*
X308764000Y-91870000D03*
X315114000Y-89330000D03*
D26*
X186062000Y-29180000D03*
X186062000Y-33680000D03*
X179562000Y-29180000D03*
X179562000Y-33680000D03*
X176262000Y-29180000D03*
X176262000Y-33680000D03*
X169762000Y-29180000D03*
X169762000Y-33680000D03*
D27*
X162297000Y-84600000D03*
X162297000Y-89480000D03*
D28*
X171610000Y-99320000D03*
X171610000Y-100490000D03*
X171610000Y-101660000D03*
X171610000Y-102830000D03*
X182515000Y-53705000D03*
X182515000Y-58080000D03*
X188890000Y-75730000D03*
D29*
X170212000Y-60543492D02*
X170212000Y-59130000D01*
X161130000Y-63200000D02*
X161130000Y-61978686D01*
X161130000Y-61978686D02*
X161140000Y-61968686D01*
X161140000Y-61968686D02*
X161140000Y-60955000D01*
X161140000Y-60955000D02*
X161490509Y-60604491D01*
X161490509Y-60604491D02*
X170151001Y-60604491D01*
X170151001Y-60604491D02*
X170212000Y-60543492D01*
X171040000Y-80355000D02*
X171040000Y-79230000D01*
X171571000Y-78699000D02*
X175410444Y-78699000D01*
X171040000Y-79230000D02*
X171571000Y-78699000D01*
X170156000Y-81239000D02*
X171040000Y-80355000D01*
X167790444Y-81239000D02*
X170156000Y-81239000D01*
X187476213Y-33680000D02*
X188390000Y-34593787D01*
X186062000Y-33680000D02*
X187476213Y-33680000D01*
X188390000Y-34593787D02*
X188390000Y-43605000D01*
X187720000Y-44275000D02*
X186312000Y-44275000D01*
X188390000Y-43605000D02*
X187720000Y-44275000D01*
X165501000Y-81239000D02*
X167790444Y-81239000D01*
X163847000Y-79585000D02*
X165501000Y-81239000D01*
X159237510Y-59130000D02*
X160687000Y-59130000D01*
X158961999Y-58854489D02*
X159237510Y-59130000D01*
X158961999Y-52656371D02*
X158961999Y-58854489D01*
X161037000Y-50581370D02*
X158961999Y-52656371D01*
X161037000Y-49450000D02*
X161037000Y-50581370D01*
X159840000Y-68280000D02*
X161130000Y-68280000D01*
X158965000Y-67405000D02*
X159840000Y-68280000D01*
X159237510Y-59130000D02*
X158965000Y-59402510D01*
X158965000Y-59402510D02*
X158965000Y-67405000D01*
X168190444Y-78699000D02*
X168196444Y-78705000D01*
X167790444Y-78699000D02*
X168190444Y-78699000D01*
X163847000Y-74585000D02*
X163847000Y-76437000D01*
X166109000Y-78699000D02*
X167790444Y-78699000D01*
X163847000Y-76437000D02*
X166109000Y-78699000D01*
D30*
X167790444Y-97529000D02*
X167790000Y-97529444D01*
X167790444Y-96479000D02*
X167790444Y-97529000D01*
X167790000Y-97529444D02*
X167790000Y-98470000D01*
X168640000Y-99320000D02*
X171610000Y-99320000D01*
X167790000Y-98470000D02*
X168640000Y-99320000D01*
X172175685Y-100490000D02*
X173155685Y-101470000D01*
X171610000Y-100490000D02*
X172175685Y-100490000D01*
X176250000Y-101470000D02*
X176499980Y-101220020D01*
X173155685Y-101470000D02*
X176250000Y-101470000D01*
X176499980Y-101220020D02*
X176499980Y-97920000D01*
X175410444Y-97529000D02*
X175410444Y-96479000D01*
X175801444Y-97920000D02*
X175410444Y-97529000D01*
X176499980Y-97920000D02*
X175801444Y-97920000D01*
X176949990Y-95078546D02*
X176949990Y-101770010D01*
X175410444Y-93939000D02*
X175810444Y-93939000D01*
X175810444Y-93939000D02*
X176949990Y-95078546D01*
X176949990Y-101770010D02*
X176740000Y-101980000D01*
X176740000Y-101980000D02*
X172490000Y-101980000D01*
X172490000Y-101980000D02*
X172150000Y-101640000D01*
X171630000Y-101640000D02*
X171610000Y-101660000D01*
X172150000Y-101640000D02*
X171630000Y-101640000D01*
X172175685Y-102830000D02*
X172185685Y-102840000D01*
X171610000Y-102830000D02*
X172175685Y-102830000D01*
X172185685Y-102840000D02*
X176870000Y-102840000D01*
X176870000Y-102840000D02*
X177400000Y-102310000D01*
X175810444Y-91399000D02*
X175410444Y-91399000D01*
X177400000Y-92988556D02*
X175810444Y-91399000D01*
X177400000Y-102310000D02*
X177400000Y-92988556D01*
X161130000Y-65740000D02*
X161130000Y-65040000D01*
X161037000Y-35618630D02*
X161037000Y-36750000D01*
X161037000Y-30102183D02*
X161037000Y-35618630D01*
X162009183Y-29130000D02*
X161037000Y-30102183D01*
X162787000Y-29130000D02*
X162009183Y-29130000D01*
X162168370Y-36750000D02*
X166332000Y-36750000D01*
X161037000Y-36750000D02*
X162168370Y-36750000D01*
X181167000Y-36655000D02*
X182217000Y-36655000D01*
X179281999Y-38540001D02*
X181167000Y-36655000D01*
X168122001Y-38540001D02*
X179281999Y-38540001D01*
X166332000Y-36750000D02*
X168122001Y-38540001D01*
D29*
X177387001Y-36895001D02*
X178022000Y-37530000D01*
X175966999Y-35474999D02*
X177387001Y-36895001D01*
X165581999Y-35474999D02*
X175966999Y-35474999D01*
X161987000Y-31880000D02*
X165581999Y-35474999D01*
X161987000Y-30880000D02*
X161987000Y-31880000D01*
D30*
X219864000Y-33735634D02*
X219864000Y-51230000D01*
X219864000Y-32180000D02*
X219864000Y-33735634D01*
X219864000Y-51230000D02*
X219864000Y-70280000D01*
X219864000Y-70280000D02*
X219864000Y-89330000D01*
X190499000Y-68539000D02*
X175410444Y-68539000D01*
X191490000Y-69530000D02*
X190499000Y-68539000D01*
X191490000Y-71893590D02*
X191490000Y-69530000D01*
X191490019Y-71893609D02*
X191490000Y-71893590D01*
X191490020Y-85557200D02*
X191490019Y-71893609D01*
X206365629Y-85649989D02*
X191582809Y-85649989D01*
X219864000Y-95311002D02*
X216595032Y-98579970D01*
X191582809Y-85649989D02*
X191490020Y-85557200D01*
X216595032Y-98579970D02*
X208476380Y-98579970D01*
X208476380Y-98579970D02*
X208430009Y-98533599D01*
X219864000Y-89330000D02*
X219864000Y-95311002D01*
X208430009Y-98533599D02*
X208430008Y-87714368D01*
X208430008Y-87714368D02*
X206365629Y-85649989D01*
X170549000Y-68539000D02*
X175410444Y-68539000D01*
X166144043Y-61883989D02*
X169436846Y-61883990D01*
X170215010Y-68205010D02*
X170549000Y-68539000D01*
X165814991Y-62213041D02*
X166144043Y-61883989D01*
X165814990Y-64155010D02*
X165814991Y-62213041D01*
X163670000Y-68280000D02*
X163670000Y-67499130D01*
X162481399Y-66310529D02*
X162481399Y-65169471D01*
X170215010Y-62662154D02*
X170215010Y-68205010D01*
X162481399Y-65169471D02*
X163262269Y-64388601D01*
X169436846Y-61883990D02*
X170215010Y-62662154D01*
X163670000Y-67499130D02*
X162481399Y-66310529D01*
X163262269Y-64388601D02*
X165581399Y-64388601D01*
X165581399Y-64388601D02*
X165814990Y-64155010D01*
X238914000Y-89330000D02*
X238914000Y-70280000D01*
X238914000Y-68724366D02*
X238914000Y-51230000D01*
X238914000Y-70280000D02*
X238914000Y-68724366D01*
X238914000Y-51230000D02*
X238914000Y-32180000D01*
X191040010Y-85743600D02*
X191040010Y-72080010D01*
X206179229Y-86099999D02*
X191396409Y-86099999D01*
X191396409Y-86099999D02*
X191040010Y-85743600D01*
X238914000Y-95311002D02*
X235195022Y-99029980D01*
X190039000Y-71079000D02*
X175410444Y-71079000D01*
X238914000Y-89330000D02*
X238914000Y-95311002D01*
X235195022Y-99029980D02*
X208289980Y-99029980D01*
X208289980Y-99029980D02*
X207979999Y-98719999D01*
X191040010Y-72080010D02*
X190039000Y-71079000D01*
X207979999Y-98719999D02*
X207979999Y-87900769D01*
X207979999Y-87900769D02*
X206179229Y-86099999D01*
X169765000Y-70430000D02*
X170414000Y-71079000D01*
X170414000Y-71079000D02*
X175410444Y-71079000D01*
X169250445Y-62333999D02*
X169765000Y-62848554D01*
X169765000Y-62848554D02*
X169765000Y-70430000D01*
X165943590Y-65740000D02*
X166265000Y-65418590D01*
X163670000Y-65740000D02*
X165943590Y-65740000D01*
X166330443Y-62333999D02*
X169250445Y-62333999D01*
X166265000Y-62399442D02*
X166330443Y-62333999D01*
X166265000Y-65418590D02*
X166265000Y-62399442D01*
X168190444Y-63459000D02*
X168194444Y-63455000D01*
X167790444Y-63459000D02*
X168190444Y-63459000D01*
X182515000Y-53705000D02*
X182515000Y-54270685D01*
X182515000Y-54270685D02*
X182515000Y-58080000D01*
X163862000Y-59130000D02*
X166212000Y-56780000D01*
X166212000Y-56780000D02*
X173165000Y-56780000D01*
X173812000Y-56133000D02*
X173812000Y-53655000D01*
X173165000Y-56780000D02*
X173812000Y-56133000D01*
X175010444Y-65999000D02*
X175410444Y-65999000D01*
X173012001Y-57275835D02*
X173812000Y-58075834D01*
X168891165Y-57275835D02*
X173012001Y-57275835D01*
X167037000Y-59130000D02*
X168891165Y-57275835D01*
X257958000Y-32190000D02*
X257958000Y-33745634D01*
X257958000Y-70270000D02*
X257958000Y-71825634D01*
X257964000Y-33735634D02*
X257964000Y-51230000D01*
X257964000Y-32180000D02*
X257964000Y-33735634D01*
X257964000Y-52785634D02*
X257964000Y-70280000D01*
X257964000Y-51230000D02*
X257964000Y-52785634D01*
X257964000Y-71835634D02*
X257964000Y-89330000D01*
X257964000Y-70280000D02*
X257964000Y-71835634D01*
X190590000Y-74205000D02*
X190004000Y-73619000D01*
X190590000Y-85930000D02*
X190590000Y-74205000D01*
X257968000Y-95307002D02*
X253795012Y-99479990D01*
X257968000Y-89330000D02*
X257968000Y-95307002D01*
X205992829Y-86550009D02*
X191210009Y-86550009D01*
X253795012Y-99479990D02*
X208073590Y-99479990D01*
X191210009Y-86550009D02*
X190590000Y-85930000D01*
X208073590Y-99479990D02*
X207529989Y-98936389D01*
X190004000Y-73619000D02*
X175410444Y-73619000D01*
X207529989Y-98936389D02*
X207529990Y-88087170D01*
X207529990Y-88087170D02*
X205992829Y-86550009D01*
X277014000Y-33735634D02*
X277014000Y-51230000D01*
X277014000Y-32180000D02*
X277014000Y-33735634D01*
X277014000Y-51230000D02*
X277014000Y-70280000D01*
X277014000Y-71835634D02*
X277014000Y-89330000D01*
X277014000Y-70280000D02*
X277014000Y-71835634D01*
X175810444Y-76159000D02*
X175410444Y-76159000D01*
X189779010Y-74069010D02*
X177900434Y-74069010D01*
X189790000Y-74080000D02*
X189779010Y-74069010D01*
X190139990Y-74404990D02*
X189815000Y-74080000D01*
X177900434Y-74069010D02*
X175810444Y-76159000D01*
X191023609Y-87000019D02*
X190139990Y-86116400D01*
X277014000Y-89330000D02*
X277014000Y-95436000D01*
X189815000Y-74080000D02*
X189790000Y-74080000D01*
X277014000Y-95436000D02*
X272520000Y-99930000D01*
X272520000Y-99930000D02*
X207887190Y-99930000D01*
X205806429Y-87000019D02*
X191023609Y-87000019D01*
X207887190Y-99930000D02*
X207079980Y-99122790D01*
X190139990Y-86116400D02*
X190139990Y-74404990D01*
X207079980Y-99122790D02*
X207079979Y-88273569D01*
X207079979Y-88273569D02*
X205806429Y-87000019D01*
X296064000Y-33735634D02*
X296064000Y-51230000D01*
X296064000Y-32180000D02*
X296064000Y-33735634D01*
X296064000Y-68724366D02*
X296064000Y-51230000D01*
X296064000Y-70280000D02*
X296064000Y-68724366D01*
X296064000Y-71835634D02*
X296064000Y-89330000D01*
X296064000Y-70280000D02*
X296064000Y-71835634D01*
X296064000Y-95311002D02*
X290955002Y-100420000D01*
X296064000Y-89330000D02*
X296064000Y-95311002D01*
X290955002Y-100420000D02*
X208300000Y-100420000D01*
X208300000Y-100420000D02*
X208339990Y-100380010D01*
X176863946Y-86319000D02*
X175410444Y-86319000D01*
X207740780Y-100420000D02*
X206629970Y-99309190D01*
X208300000Y-100420000D02*
X207740780Y-100420000D01*
X206629970Y-99309190D02*
X206629970Y-88459970D01*
X206629970Y-88459970D02*
X205620028Y-87450028D01*
X205620028Y-87450028D02*
X177994973Y-87450027D01*
X177994973Y-87450027D02*
X176863946Y-86319000D01*
X315114000Y-33735634D02*
X315114000Y-51230000D01*
X315114000Y-32180000D02*
X315114000Y-33735634D01*
X315114000Y-52785634D02*
X315114000Y-70280000D01*
X315114000Y-51230000D02*
X315114000Y-52785634D01*
X315114000Y-71835634D02*
X315114000Y-89330000D01*
X315114000Y-70280000D02*
X315114000Y-71835634D01*
X177061000Y-88859000D02*
X175410444Y-88859000D01*
X178019964Y-87900036D02*
X177061000Y-88859000D01*
X315114000Y-95311002D02*
X309515002Y-100910000D01*
X315114000Y-89330000D02*
X315114000Y-95311002D01*
X309515002Y-100910000D02*
X207594370Y-100910000D01*
X205350037Y-87900037D02*
X178019964Y-87900036D01*
X207594370Y-100910000D02*
X206179960Y-99495590D01*
X206179960Y-99495590D02*
X206179960Y-88729960D01*
X206179960Y-88729960D02*
X205350037Y-87900037D01*
X36919000Y-33735634D02*
X36919000Y-51230000D01*
X36919000Y-32180000D02*
X36919000Y-33735634D01*
X36919000Y-52785634D02*
X36919000Y-70280000D01*
X36919000Y-51230000D02*
X36919000Y-52785634D01*
X36919000Y-70280000D02*
X36919000Y-89330000D01*
X36919000Y-93609002D02*
X44159998Y-100850000D01*
X36919000Y-89330000D02*
X36919000Y-93609002D01*
X44159998Y-100850000D02*
X137420000Y-100850000D01*
X137420000Y-100850000D02*
X143220000Y-100850000D01*
X143220000Y-100850000D02*
X143900000Y-100170000D01*
X143900000Y-100170000D02*
X143900000Y-89571998D01*
X143900000Y-89571998D02*
X143900000Y-88540000D01*
X143900000Y-88540000D02*
X143970000Y-88470000D01*
X168190444Y-93939000D02*
X167790444Y-93939000D01*
X143900000Y-88540000D02*
X143900000Y-88520000D01*
X144110000Y-88310000D02*
X163897180Y-88310000D01*
X166099000Y-93939000D02*
X167790444Y-93939000D01*
X163897180Y-88310000D02*
X165089990Y-89502810D01*
X143900000Y-88520000D02*
X144110000Y-88310000D01*
X165089990Y-89502810D02*
X165089990Y-92929990D01*
X165089990Y-92929990D02*
X166099000Y-93939000D01*
X55969000Y-89330000D02*
X55969000Y-70280000D01*
X55969000Y-70280000D02*
X55969000Y-51230000D01*
X55969000Y-51230000D02*
X55969000Y-32180000D01*
X55969000Y-93609002D02*
X62759988Y-100399990D01*
X55969000Y-89330000D02*
X55969000Y-93609002D01*
X62759988Y-100399990D02*
X137410000Y-100399990D01*
X137410000Y-100399990D02*
X137400000Y-100399990D01*
X168190444Y-91399000D02*
X167790444Y-91399000D01*
X166159000Y-91399000D02*
X167790444Y-91399000D01*
X165540000Y-90780000D02*
X166159000Y-91399000D01*
X142870010Y-100399990D02*
X143449990Y-99820010D01*
X165540000Y-89316410D02*
X165540000Y-90780000D01*
X137410000Y-100399990D02*
X142870010Y-100399990D01*
X143449990Y-99820010D02*
X143449991Y-88333599D01*
X143449991Y-88333599D02*
X143923600Y-87859990D01*
X143923600Y-87859990D02*
X164083580Y-87859990D01*
X164083580Y-87859990D02*
X165540000Y-89316410D01*
X75019000Y-33735634D02*
X75019000Y-51230000D01*
X75019000Y-32180000D02*
X75019000Y-33735634D01*
X75019000Y-51230000D02*
X75019000Y-70280000D01*
X75019000Y-71835634D02*
X75019000Y-89330000D01*
X75019000Y-70280000D02*
X75019000Y-71835634D01*
X168190444Y-88859000D02*
X167790444Y-88859000D01*
X165719000Y-88859000D02*
X167790444Y-88859000D01*
X164269981Y-87409981D02*
X165719000Y-88859000D01*
X143737201Y-87409981D02*
X164269981Y-87409981D01*
X75019000Y-93609002D02*
X81359978Y-99949980D01*
X75019000Y-89330000D02*
X75019000Y-93609002D01*
X81359978Y-99949980D02*
X142650020Y-99949980D01*
X142650020Y-99949980D02*
X142999981Y-99600019D01*
X142999981Y-99600019D02*
X142999982Y-88147198D01*
X142999982Y-88147198D02*
X143737201Y-87409981D01*
X187704999Y-76915001D02*
X178129999Y-76915001D01*
X188890000Y-75730000D02*
X187704999Y-76915001D01*
X178129999Y-76915001D02*
X177490000Y-77555000D01*
X177490000Y-77555000D02*
X177490000Y-79480000D01*
X177490000Y-79480000D02*
X176990000Y-79980000D01*
X176990000Y-79980000D02*
X172365000Y-79980000D01*
X172365000Y-79980000D02*
X170240000Y-82105000D01*
X170240000Y-82105000D02*
X170240000Y-88605000D01*
X169986000Y-88859000D02*
X167790444Y-88859000D01*
X170240000Y-88605000D02*
X169986000Y-88859000D01*
X94069000Y-89330000D02*
X94069000Y-70280000D01*
X94069000Y-68724366D02*
X94069000Y-51230000D01*
X94069000Y-70280000D02*
X94069000Y-68724366D01*
X94069000Y-49674366D02*
X94069000Y-32180000D01*
X94069000Y-51230000D02*
X94069000Y-49674366D01*
X165890000Y-75708556D02*
X166340444Y-76159000D01*
X164815018Y-72005018D02*
X165890000Y-73080000D01*
X156764982Y-72005018D02*
X164815018Y-72005018D01*
X156640020Y-85052800D02*
X156640020Y-72129980D01*
X154732849Y-86959971D02*
X156640020Y-85052800D01*
X143550801Y-86959971D02*
X154732849Y-86959971D01*
X166340444Y-76159000D02*
X167790444Y-76159000D01*
X94069000Y-89330000D02*
X94069000Y-93609002D01*
X165890000Y-73080000D02*
X165890000Y-75708556D01*
X94069000Y-93609002D02*
X99959968Y-99499970D01*
X99959968Y-99499970D02*
X142463620Y-99499970D01*
X142463620Y-99499970D02*
X142549972Y-99413618D01*
X156640020Y-72129980D02*
X156764982Y-72005018D01*
X142549972Y-99413618D02*
X142549974Y-87960797D01*
X142549974Y-87960797D02*
X143550801Y-86959971D01*
X113119000Y-33735634D02*
X113119000Y-51230000D01*
X113119000Y-32180000D02*
X113119000Y-33735634D01*
X113119000Y-52785634D02*
X113119000Y-70280000D01*
X113119000Y-51230000D02*
X113119000Y-52785634D01*
X113119000Y-71835634D02*
X113119000Y-89330000D01*
X113119000Y-70280000D02*
X113119000Y-71835634D01*
X166340444Y-68539000D02*
X167790444Y-68539000D01*
X165890010Y-68989434D02*
X166340444Y-68539000D01*
X164801401Y-71555009D02*
X165890010Y-70466400D01*
X156576400Y-71555010D02*
X164801401Y-71555009D01*
X156190010Y-71941400D02*
X156576400Y-71555010D01*
X154546450Y-86509960D02*
X156190010Y-84866400D01*
X113119000Y-89330000D02*
X113119000Y-93609000D01*
X156190010Y-84866400D02*
X156190010Y-71941400D01*
X113119000Y-93609000D02*
X118559960Y-99049960D01*
X118559960Y-99049960D02*
X142099963Y-99049960D01*
X142099963Y-99049960D02*
X142099966Y-87774396D01*
X165890010Y-70466400D02*
X165890010Y-68989434D01*
X142099966Y-87774396D02*
X143364401Y-86509961D01*
X143364401Y-86509961D02*
X154546450Y-86509960D01*
X132169000Y-32180000D02*
X132169000Y-51230000D01*
X132169000Y-52785634D02*
X132169000Y-70280000D01*
X132169000Y-51230000D02*
X132169000Y-52785634D01*
X132169000Y-70280000D02*
X132169000Y-89330000D01*
X164615000Y-71105000D02*
X165440000Y-70280000D01*
X155740000Y-71755000D02*
X156390000Y-71105000D01*
X155740000Y-84680000D02*
X155740000Y-71755000D01*
X154360049Y-86059951D02*
X155740000Y-84680000D01*
X143178001Y-86059951D02*
X154360049Y-86059951D01*
X141649957Y-87587995D02*
X143178001Y-86059951D01*
X166321000Y-65999000D02*
X167790444Y-65999000D01*
X132169000Y-93608950D02*
X137130000Y-98569950D01*
X132169000Y-89330000D02*
X132169000Y-93608950D01*
X165440000Y-66880000D02*
X166321000Y-65999000D01*
X165440000Y-70280000D02*
X165440000Y-66880000D01*
X137199950Y-98569950D02*
X137229950Y-98599950D01*
X137229950Y-98599950D02*
X141649954Y-98599950D01*
X156390000Y-71105000D02*
X164615000Y-71105000D01*
X137130000Y-98569950D02*
X137199950Y-98569950D01*
X141649954Y-98599950D02*
X141649957Y-87587995D01*
M02*
